<svg width="0" height="0" fill="none" style="visibility: hidden; position: absolute;" aria-hidden="true">
    <symbol id="carded" width="" height="" viewBox="0 0 117 34" fill="none" xmlns="http://www.w3.org/2000/svg">
        <path d="M54.3207 22.4057C54.4999 22.4057 54.6548 22.4749 54.7851 22.6133L56.0807 24.018C55.3637 24.9056 54.4795 25.5856 53.4284 26.0578C52.3855 26.5301 51.1307 26.7663 49.6639 26.7663C48.3521 26.7663 47.1706 26.5424 46.1195 26.0945C45.0765 25.6466 44.1843 25.0237 43.4428 24.2257C42.7013 23.4277 42.1309 22.4749 41.7317 21.3674C41.3405 20.2599 41.145 19.0507 41.145 17.7396C41.145 16.4123 41.365 15.199 41.805 14.0996C42.245 12.9922 42.8643 12.0395 43.6628 11.2414C44.4613 10.4434 45.4147 9.8245 46.5228 9.38474C47.6391 8.93694 48.8695 8.71295 50.2139 8.71295C51.5258 8.71295 52.6707 8.92466 53.6484 9.34817C54.6344 9.76347 55.4777 10.3172 56.1784 11.0094L55.0785 12.5362C55.0133 12.6339 54.9277 12.7194 54.8218 12.7927C54.724 12.866 54.5855 12.9026 54.4063 12.9026C54.2188 12.9026 54.0273 12.8294 53.8318 12.6827C53.6362 12.5362 53.3877 12.3774 53.0862 12.2064C52.7847 12.0353 52.4017 11.8766 51.9373 11.73C51.481 11.5835 50.8984 11.5102 50.1895 11.5102C49.3584 11.5102 48.5924 11.6567 47.8917 11.9498C47.1991 12.2349 46.6002 12.6461 46.095 13.1835C45.598 13.721 45.2069 14.3765 44.9217 15.1501C44.6446 15.9156 44.5062 16.7787 44.5062 17.7396C44.5062 18.7331 44.6446 19.6167 44.9217 20.3902C45.2069 21.1638 45.5899 21.8153 46.0706 22.3445C46.5513 22.8739 47.1177 23.281 47.7695 23.5661C48.4213 23.843 49.1221 23.9814 49.8717 23.9814C50.3199 23.9814 50.7233 23.9569 51.0817 23.908C51.4484 23.8592 51.7825 23.7818 52.084 23.676C52.3936 23.5701 52.6829 23.4358 52.9518 23.2729C53.2288 23.1019 53.5018 22.8943 53.7706 22.65C53.8521 22.5767 53.9377 22.5197 54.0273 22.479C54.117 22.43 54.2148 22.4057 54.3207 22.4057Z" fill="#969FA4"/>
        <path d="M67.7383 26.5709H66.3817C66.0965 26.5709 65.8724 26.5301 65.7094 26.4487C65.5465 26.3592 65.4243 26.1841 65.3428 25.9235L65.0739 25.0318C64.756 25.3168 64.4424 25.5693 64.1327 25.7892C63.8313 26.0009 63.5176 26.18 63.1916 26.3266C62.8657 26.4732 62.5194 26.5831 62.1528 26.6564C61.7861 26.7297 61.3786 26.7663 60.9305 26.7663C60.4008 26.7663 59.912 26.6972 59.4638 26.5587C59.0157 26.4121 58.6286 26.1963 58.3027 25.9113C57.9849 25.6263 57.7364 25.2721 57.5571 24.8486C57.3778 24.4252 57.2882 23.9325 57.2882 23.3706C57.2882 22.8984 57.4104 22.4342 57.6549 21.9782C57.9075 21.514 58.323 21.0987 58.9016 20.7322C59.4801 20.3577 60.2501 20.0483 61.2116 19.804C62.1731 19.5597 63.3668 19.4212 64.7927 19.3887V18.6557C64.7927 17.817 64.6135 17.1981 64.2549 16.7992C63.9046 16.392 63.3913 16.1884 62.7149 16.1884C62.226 16.1884 61.8187 16.2454 61.4927 16.3594C61.1668 16.4734 60.8816 16.6037 60.6371 16.7503C60.4008 16.8887 60.1808 17.015 59.9771 17.1289C59.7734 17.2429 59.5494 17.3 59.3049 17.3C59.1012 17.3 58.926 17.247 58.7793 17.1412C58.6327 17.0353 58.5146 16.905 58.4249 16.7503L57.8749 15.7853C59.3171 14.4661 61.0568 13.8065 63.0938 13.8065C63.8272 13.8065 64.4791 13.9287 65.0495 14.173C65.628 14.4091 66.1168 14.743 66.5161 15.1746C66.9154 15.5981 67.2169 16.107 67.4206 16.7014C67.6324 17.2959 67.7383 17.9473 67.7383 18.6557V26.5709ZM61.8716 24.6898C62.1812 24.6898 62.4664 24.6613 62.7272 24.6043C62.9879 24.5474 63.2324 24.4619 63.4605 24.3478C63.6968 24.2338 63.9209 24.0954 64.1327 23.9325C64.3528 23.7616 64.5728 23.562 64.7927 23.334V21.2208C63.9127 21.2616 63.1753 21.3389 62.5805 21.453C61.9939 21.5588 61.5212 21.6973 61.1627 21.8683C60.8042 22.0392 60.5475 22.2388 60.3927 22.4667C60.2461 22.6948 60.1727 22.9431 60.1727 23.2118C60.1727 23.7412 60.3276 24.1198 60.6371 24.3478C60.955 24.5758 61.3665 24.6898 61.8716 24.6898Z" fill="#969FA4"/>
        <path d="M70.2179 26.5709V14.0386H71.9902C72.2998 14.0386 72.5157 14.0956 72.6379 14.2096C72.7601 14.3236 72.8416 14.519 72.8823 14.7959L73.0657 16.3106C73.5138 15.537 74.0394 14.9262 74.6424 14.4783C75.2453 14.0305 75.9217 13.8065 76.6713 13.8065C77.2906 13.8065 77.8039 13.9491 78.2113 14.2341L77.8202 16.4938C77.7958 16.6404 77.7427 16.7462 77.6613 16.8114C77.5799 16.8683 77.4698 16.8969 77.3313 16.8969C77.2091 16.8969 77.0421 16.8683 76.8301 16.8114C76.6183 16.7543 76.3372 16.7259 75.9868 16.7259C75.3594 16.7259 74.8216 16.9009 74.3735 17.2511C73.9253 17.5931 73.5464 18.098 73.2368 18.7657V26.5709H70.2179Z" fill="#969FA4"/>
        <path d="M88.5316 26.5708C88.1408 26.5708 87.8844 26.3876 87.7616 26.0212L87.5176 24.8119C87.257 25.1051 86.984 25.3697 86.6986 25.6059C86.4132 25.8421 86.1036 26.0456 85.7692 26.2166C85.444 26.3876 85.0896 26.5179 84.7063 26.6075C84.3312 26.7052 83.9238 26.7541 83.484 26.7541C82.7996 26.7541 82.1722 26.6115 81.6018 26.3266C81.0315 26.0416 80.5385 25.6304 80.1229 25.0929C79.7155 24.5473 79.3977 23.8755 79.1696 23.0774C78.9495 22.2794 78.8396 21.3674 78.8396 20.3414C78.8396 19.4131 78.9659 18.5499 79.2185 17.7519C79.4711 16.9538 79.8337 16.2617 80.3063 15.6753C80.7788 15.089 81.3451 14.633 82.0052 14.3073C82.6652 13.9734 83.4068 13.8065 84.23 13.8065C84.9303 13.8065 85.5294 13.9205 86.0265 14.1486C86.5235 14.3684 86.9674 14.6656 87.3583 15.0402V8.4198H90.3779V26.5708H88.5316ZM84.5104 24.36C85.1378 24.36 85.6722 24.2297 86.1119 23.9692C86.5517 23.7085 86.9674 23.338 87.3583 22.8576V17.2388C87.0164 16.8235 86.6413 16.5304 86.2339 16.3594C85.8348 16.1884 85.4033 16.1029 84.9386 16.1029C84.4822 16.1029 84.0665 16.1884 83.6914 16.3594C83.3255 16.5304 83.0119 16.7909 82.7507 17.1411C82.4981 17.4831 82.3026 17.9229 82.1641 18.4603C82.0256 18.9896 81.9563 19.6167 81.9563 20.3414C81.9563 21.0743 82.0133 21.6972 82.1274 22.2102C82.2496 22.7151 82.4207 23.1304 82.6407 23.4561C82.8607 23.7737 83.1297 24.0058 83.4475 24.1523C83.7653 24.2908 84.1196 24.36 84.5104 24.36Z" fill="#969FA4"/>
        <path d="M98.3422 13.8431C99.1322 13.8431 99.8574 13.9694 100.517 14.2218C101.186 14.4742 101.76 14.8447 102.241 15.3333C102.722 15.8138 103.096 16.4082 103.365 17.1167C103.634 17.817 103.769 18.6191 103.769 19.523C103.769 19.751 103.757 19.9423 103.732 20.0971C103.716 20.2437 103.679 20.3618 103.622 20.4513C103.573 20.5328 103.503 20.5938 103.414 20.6345C103.324 20.6671 103.211 20.6834 103.072 20.6834H95.3226C95.4122 21.97 95.7591 22.9146 96.3615 23.5172C96.9648 24.1198 97.763 24.4211 98.7571 24.4211C99.2467 24.4211 99.6657 24.3641 100.017 24.25C100.375 24.1361 100.685 24.0099 100.945 23.8714C101.214 23.733 101.446 23.6068 101.642 23.4928C101.846 23.3787 102.041 23.3218 102.229 23.3218C102.351 23.3218 102.457 23.3462 102.547 23.3951C102.636 23.4439 102.714 23.5132 102.778 23.6027L103.659 24.702C103.324 25.0929 102.95 25.4227 102.534 25.6914C102.119 25.952 101.683 26.1637 101.227 26.3266C100.778 26.4813 100.318 26.5912 99.8449 26.6564C99.3811 26.7215 98.9289 26.7541 98.4882 26.7541C97.617 26.7541 96.8063 26.6115 96.0561 26.3266C95.3068 26.0334 94.6546 25.6059 94.1003 25.0441C93.5469 24.474 93.1104 23.7737 92.7926 22.9431C92.4748 22.1044 92.3163 21.1353 92.3163 20.036C92.3163 19.181 92.4549 18.3789 92.732 17.6297C93.0092 16.8724 93.4041 16.2168 93.9178 15.6631C94.4389 15.1013 95.0704 14.6575 95.8122 14.3317C96.5615 14.006 97.4045 13.8431 98.3422 13.8431ZM98.4028 16.0051C97.5232 16.0051 96.8345 16.2535 96.3374 16.7502C95.8404 17.247 95.5226 17.9513 95.384 18.8634H101.056C101.056 18.4725 101.003 18.1061 100.896 17.7641C100.79 17.4139 100.627 17.1086 100.408 16.848C100.188 16.5874 99.9105 16.3838 99.5761 16.2372C99.2425 16.0825 98.8509 16.0051 98.4028 16.0051Z" fill="#969FA4"/>
        <path d="M114.553 26.5708C114.162 26.5708 113.906 26.3876 113.783 26.0212L113.539 24.8119C113.278 25.1051 113.005 25.3697 112.72 25.6059C112.435 25.8421 112.125 26.0456 111.791 26.2166C111.465 26.3876 111.11 26.5179 110.728 26.6075C110.353 26.7052 109.945 26.7541 109.505 26.7541C108.821 26.7541 108.194 26.6115 107.623 26.3266C107.053 26.0416 106.56 25.6304 106.144 25.0929C105.737 24.5473 105.419 23.8755 105.191 23.0774C104.971 22.2794 104.861 21.3674 104.861 20.3414C104.861 19.4131 104.987 18.5499 105.239 17.7519C105.493 16.9538 105.855 16.2617 106.327 15.6753C106.8 15.089 107.366 14.633 108.027 14.3073C108.686 13.9734 109.428 13.8065 110.251 13.8065C110.952 13.8065 111.551 13.9205 112.048 14.1486C112.545 14.3684 112.989 14.6656 113.38 15.0402V8.4198H116.398V26.5708H114.553ZM110.532 24.36C111.159 24.36 111.694 24.2297 112.133 23.9692C112.573 23.7085 112.989 23.338 113.38 22.8576V17.2388C113.038 16.8235 112.663 16.5304 112.255 16.3594C111.856 16.1884 111.424 16.1029 110.96 16.1029C110.504 16.1029 110.088 16.1884 109.713 16.3594C109.346 16.5304 109.032 16.7909 108.772 17.1411C108.52 17.4831 108.324 17.9229 108.185 18.4603C108.047 18.9896 107.978 19.6167 107.978 20.3414C107.978 21.0743 108.034 21.6972 108.149 22.2102C108.271 22.7151 108.442 23.1304 108.662 23.4561C108.882 23.7737 109.151 24.0058 109.469 24.1523C109.787 24.2908 110.141 24.36 110.532 24.36Z" fill="#969FA4"/>
        <path fill-rule="evenodd" clip-rule="evenodd" d="M7.07577 6.8814C7.6206 5.01781 9.57392 3.94846 11.4387 4.49294L23.1902 7.92423C25.055 8.46872 26.125 10.4209 25.5802 12.2844L20.3182 30.2833C19.7733 32.1469 17.82 33.2162 15.9552 32.6717L4.20373 29.2404C2.33896 28.696 1.26894 26.7438 1.81377 24.8802L7.07577 6.8814ZM10.6799 7.08859C10.2495 6.96294 9.7988 7.20971 9.67308 7.63978L4.41105 25.6386C4.28532 26.0686 4.53224 26.5192 4.96257 26.6448L16.7141 30.076C17.1444 30.2017 17.5952 29.955 17.7209 29.5249L22.983 11.5261C23.1087 11.096 22.8617 10.6455 22.4314 10.5199L10.6799 7.08859Z" fill="#969FA4"/>
        <path fill-rule="evenodd" clip-rule="evenodd" d="M14.417 3.71673C14.9617 1.85314 16.9151 0.78378 18.7799 1.32827L30.5314 4.75956C32.3961 5.30404 33.4662 7.25619 32.9214 9.11977L27.6594 27.1185C27.1145 28.9822 25.1611 30.0515 23.2964 29.5071L11.5449 26.0757C9.68013 25.5312 8.61012 23.5791 9.15496 21.7155L14.417 3.71673ZM18.0211 3.92392C17.5907 3.79827 17.1399 4.04504 17.0142 4.4751L11.7522 22.4739C11.6265 22.904 11.8734 23.3544 12.3038 23.4801L24.0553 26.9114C24.4856 27.037 24.9364 26.7902 25.0621 26.3602L30.3241 8.36141C30.4498 7.93135 30.2029 7.48086 29.7725 7.35521L18.0211 3.92392Z" fill="#969FA4"/>
    </symbol>
    <symbol id="cash" width="" height="" viewBox="0 0 55 55" fill="none" xmlns="http://www.w3.org/2000/svg">
        <path d="M38.1518 37.059C38.6066 37.254 39.1047 37.1458 39.4729 36.8209C39.7977 36.5394 41.3353 35.1316 41.92 34.7851C42.6563 34.352 43.2194 26.9672 43.2194 26.9889C43.2627 26.5557 43.1111 26.1225 42.8079 25.8193C39.841 22.8091 39.6894 22.4192 36.1594 21.9861C35.1848 21.8562 34.5352 21.8996 34.4053 22.1162C33.8638 22.9824 36.311 24.5632 38.2384 24.5632C38.9747 24.5632 41.2486 26.9671 41.0321 27.5085C40.8805 27.8767 40.9454 30.2372 40.9238 32.836L39.9492 33.3341C39.4078 33.6157 38.7365 34.1138 38.455 34.4819C37.9569 35.11 37.9136 35.1101 37.069 34.6119C36.2677 34.1355 34.8816 34.1572 34.8816 34.6553C34.8816 35.0884 36.5925 36.4527 37.7187 36.9074L38.1518 37.059Z" fill="#000001"/>
        <path d="M48.2222 18.6506C48.2438 17.9793 47.9406 17.3296 47.4208 16.9181C46.4463 16.1601 45.3851 16.0735 44.8654 16.6799C43.2195 18.6723 36.5926 17.9576 29.9441 15.0556C25.3746 13.0632 20.0904 12.1753 15.5425 12.6301C5.66713 13.6046 6.68498 13.8429 7.63787 38.0332L8.69902 38.5746C9.73853 39.116 9.82511 39.116 12.7704 38.4663C17.4699 37.4268 25.1363 37.5134 29.5976 38.6179C33.604 39.6141 34.427 39.4409 32.7811 37.8816C29.7492 35.0229 17.6648 33.377 12.7704 35.1745C11.7742 35.5427 10.8431 35.8242 10.6915 35.8242C10.1717 35.8242 11.1462 29.3056 10.6481 15.8136C10.6698 15.8136 20.8916 12.9333 28.493 16.8098C32.6078 18.9105 37.6321 20.2748 41.4004 20.2965H45.0603C45.0603 37.9032 45.2119 39.7442 44.5839 39.7442C44.3024 39.7442 42.5915 39.5491 40.7723 39.3109C37.2423 38.8561 36.7442 38.9429 37.4588 39.9606C38.1518 40.9352 42.5049 41.9963 45.2336 42.1263C47.7458 42.2562 47.4425 41.888 47.5508 40.3504C47.6591 38.4663 47.5508 39.9606 48.2222 18.6506Z" fill="#000001"/>
        <path d="M15.1742 20.3616C15.8455 20.1883 16.9934 19.2138 17.1883 18.6507C17.2749 18.3692 18.0762 18.3908 20.5451 18.6724C26.6522 19.387 23.8368 16.8532 22.6674 16.5284C21.303 16.1386 19.1807 16.2902 16.7552 16.6583C16.3004 16.7233 15.759 17.0698 15.5641 17.438C15.3692 17.8061 14.3729 18.4125 13.6799 19.1272C11.7958 21.0113 11.6009 30.4319 13.42 30.7134C14.9143 30.93 15.4124 31.1249 16.1704 31.8395C17.1016 32.6842 17.2099 32.5975 23.382 32.5975C24.2266 32.5975 24.6814 30.5185 19.3755 30.3019C17.1882 30.2153 16.7118 30.0854 15.9322 29.4357C15.4341 29.0242 14.8927 28.6777 14.7411 28.6777C14.0697 28.6777 14.5028 20.5132 15.1742 20.3616Z" fill="#000001"/>
        <path d="M28.0814 32.0346C28.3197 31.7314 28.4929 30.5619 28.4929 30.4536C28.4929 30.3454 29.1426 30.3887 29.8573 30.1938C32.4994 29.4791 32.4344 26.2739 29.749 24.758C29.0127 24.3465 26.3273 24.1949 26.6954 22.549C26.9553 21.3362 27.8649 21.7477 28.8394 22.2242C29.5108 22.5274 30.0955 22.8739 30.6802 23.177C31.7197 23.7185 31.6981 22.3324 31.0051 21.7477C30.5719 21.3796 29.9439 21.0114 29.3159 20.7299C29.186 20.6649 29.4457 20.0369 29.2292 19.5821C28.7744 18.6508 27.4751 18.2394 27.4751 19.0407C27.4751 19.1489 27.2801 20.0152 27.2801 20.0152C27.2584 20.0152 24.9629 18.954 24.0967 21.5095C23.6635 22.7872 24.2049 24.6497 25.8292 25.1478C27.1286 25.5593 29.4891 25.9707 29.3159 27.3134C29.0777 29.1759 25.9158 27.8982 25.8941 27.8982C23.6418 27.3351 22.1043 28.0714 24.768 29.2625C25.2228 29.4791 26.2406 29.739 26.4572 29.9339C26.6738 30.1288 26.4355 31.3632 26.4355 31.5798C26.4788 32.5327 27.5617 32.7492 28.0814 32.0346Z" fill="#000001"/>
    </symbol>
    <symbol id="check" width="" height="" viewBox="0 0 15 10" fill="none" xmlns="http://www.w3.org/2000/svg">
        <path d="M14 1L5.3333 8L1 4.50003" stroke="#6D757C" stroke-width="1.6"/>
    </symbol>
    <symbol id="f" width="" height="" viewBox="0 0 22 22" fill="none" xmlns="http://www.w3.org/2000/svg">
        <path d="M22 11C22 4.92488 17.0751 0 11 0C4.92488 0 0 4.92488 0 11C0 16.4903 4.02252 21.0412 9.28125 21.8664V14.1797H6.48826V11H9.28125V8.57656C9.28125 5.81969 10.9235 4.29688 13.4361 4.29688C14.6393 4.29688 15.8984 4.51172 15.8984 4.51172V7.21875H14.5114C13.145 7.21875 12.7188 8.06676 12.7188 8.9375V11H15.7695L15.2818 14.1797H12.7188V21.8664C17.9775 21.0412 22 16.4903 22 11Z" fill="black"/>
    </symbol>
    <symbol id="fast" width="" height="" viewBox="0 0 35 46" fill="none" xmlns="http://www.w3.org/2000/svg">
        <path fill-rule="evenodd" clip-rule="evenodd" d="M20.2919 1.31951C15.5527 3.72756 4.87011 15.6141 1.38611 22.2747C-0.714563 26.2967 -0.458313 26.5272 6.33031 26.9115L11.1721 27.1933C2.38521 42.5638 3.28181 40.9243 3.20491 41.078C1.28361 44.3827 3.89661 46.5858 6.66331 43.9984C6.68891 43.9728 30.4364 25.5281 34.689 19.4055C35.1757 18.7138 35.0477 17.9197 33.9717 17.1255C32.2041 15.819 29.8217 15.4091 21.1373 14.6919C19.7795 14.5894 19.1648 14.4357 19.2672 14.2308C19.9077 12.6681 22.3669 6.10994 23.5453 3.54823C24.9287 0.550969 24.8006 -0.986081 20.2919 1.31951ZM18.5242 7.05784C18.2937 7.59584 15.4501 14.4101 15.322 14.6919C14.656 16.024 15.0915 16.7157 16.7566 16.895C22.29 17.4842 24.4931 17.6891 26.7219 17.7916C30.4108 17.9709 30.4365 17.8172 26.5426 21.7367C22.3926 25.938 11.7869 35.6727 11.5563 35.4421C11.3514 35.2372 14.7585 28.7303 15.6808 27.5263C17.3459 25.3488 16.8335 25.0414 11.5307 25.0414C9.14821 25.0414 7.66241 24.9901 6.53521 24.9133C5.48491 24.8364 4.84441 23.7093 5.35681 22.7614C7.27811 19.2518 10.7109 14.8712 16.4237 8.59494C19.0367 5.77694 19.0878 5.72574 18.5242 7.05784Z" fill="#000001"/>
    </symbol>
    <symbol id="focusfox" width="" height="" viewBox="0 0 124 33" fill="none" xmlns="http://www.w3.org/2000/svg">
        <g clip-path="url(#clip0_2_716__focusfox)">
            <path fill-rule="evenodd" clip-rule="evenodd" d="M17.8115 2.21949C18.1481 2.11139 18.5141 2.14707 18.8238 2.3182C19.5012 2.69259 20.0166 3.34247 20.4 3.99274C20.7989 4.6692 21.1333 5.48001 21.3934 6.34137C21.9115 8.05681 22.1802 10.1242 21.9905 12.0113C21.9189 12.7237 21.2869 13.2427 20.5789 13.1707C19.8708 13.0986 19.3549 12.4628 19.4266 11.7505C19.5768 10.2554 19.3624 8.53475 18.9277 7.09513C18.8076 6.69774 18.6743 6.3335 18.5336 6.01029C18.1129 7.09177 17.6801 8.28346 17.4871 8.92978C17.2823 9.61546 16.5638 10.0043 15.8823 9.79824C15.2007 9.5922 14.8143 8.86933 15.0191 8.18366C15.3945 6.92637 16.5278 3.96267 17.0435 2.89001C17.1973 2.57001 17.475 2.32759 17.8115 2.21949Z" fill="#969FA4"/>
            <path fill-rule="evenodd" clip-rule="evenodd" d="M13.743 8.14856C13.9994 7.32905 14.8675 6.87376 15.6821 7.13167C16.4863 7.3863 17.2718 7.72743 18.0357 8.12321L18.0402 8.12562C21.6088 9.98972 24.1965 13.1361 24.9025 16.382C24.9131 16.4226 24.929 16.4572 24.9453 16.4824C24.9608 16.5065 24.9719 16.5154 24.9721 16.5155L24.9814 16.5221L27.6136 18.4249L27.6174 18.4277C28.5542 19.1093 28.7954 20.225 28.7499 21.0293C28.7046 21.8314 28.3379 22.9261 27.3046 23.4867L27.2976 23.4905C25.9504 24.2124 24.3235 24.4362 21.8402 23.9933C21.8289 23.9913 21.8176 23.9892 21.8064 23.987C21.7482 23.9752 21.687 23.9657 21.5814 23.9494L21.5734 23.9481C21.4909 23.9354 21.3709 23.9167 21.2437 23.8901C19.3352 23.5857 18.065 23.6196 17.28 23.8322C16.5798 24.0218 16.3993 24.3006 16.3152 24.5752C15.7289 26.5241 16.2651 27.6689 16.993 29.2232C17.109 29.4709 17.2299 29.7291 17.3519 30.0026C17.7016 30.7864 17.3535 31.707 16.5745 32.0588C15.7954 32.4106 14.8803 32.0604 14.5306 31.2767C14.4421 31.078 14.341 30.8678 14.234 30.6451C13.4712 29.0578 12.4031 26.8353 13.3564 23.6703L13.3578 23.6657C13.8165 22.1596 14.973 21.2349 16.4763 20.8278C17.8912 20.4447 19.6834 20.4877 21.7719 20.8243C21.8025 20.8293 21.8329 20.835 21.8631 20.8418C21.8967 20.8494 21.9442 20.8576 22.0465 20.8734C22.054 20.8746 22.0619 20.8759 22.0702 20.8771C22.153 20.8899 22.2718 20.9082 22.3946 20.9324C24.2161 21.2554 25.0992 21.084 25.6523 20.8383L23.181 19.0518C22.5001 18.5652 22.0682 17.8393 21.8917 17.0928C21.8892 17.0824 21.8869 17.0719 21.8846 17.0615C21.4183 14.8909 19.5498 12.4206 16.6175 10.888C15.9757 10.5557 15.3554 10.2899 14.7538 10.0995C13.9392 9.84154 13.4867 8.96809 13.743 8.14856Z" fill="#969FA4"/>
            <path fill-rule="evenodd" clip-rule="evenodd" d="M10.0909 4.75535C10.057 5.2168 10.0212 5.66704 9.98712 6.08771C9.97488 6.23844 9.96304 6.38386 9.9516 6.52364C9.86952 7.53006 9.81136 8.24347 9.81136 8.53451C9.81136 9.1174 9.51376 9.78698 8.8368 10.128C8.07952 10.5094 7.03395 11.0967 6.10057 11.7916C6.08781 11.8011 6.0751 11.8106 6.06245 11.82C6.32485 11.8915 6.53111 11.9665 6.66582 12.02C7.34806 12.278 7.65759 12.8958 7.70276 13.3963C7.74426 13.8561 7.59222 14.3491 7.22931 14.7147C7.18101 14.7634 7.12955 14.8088 7.07528 14.8506C6.80414 15.0594 5.85283 15.8381 5.00755 17.0582C4.57144 17.6876 4.17833 18.4121 3.91405 19.221C5.15943 19.0113 6.44671 20.228 5.86119 21.6475C5.37473 22.9277 4.08827 26.7704 4.38185 30.7261C4.44544 31.5829 3.80664 32.3293 2.95506 32.3933C2.10347 32.4573 1.36158 31.8146 1.29799 30.9578C1.09224 28.1854 1.53694 25.5147 2.04308 23.5115C1.84708 23.4895 1.65466 23.4346 1.47438 23.3474C0.942776 23.0903 0.513097 22.5387 0.490867 21.8309C0.35396 19.0937 1.37716 16.8571 2.47066 15.2789C2.5432 15.1742 2.6163 15.0721 2.68967 14.9724C2.32857 14.9035 2.00514 14.7229 1.76595 14.4819C1.29689 14.0094 1.08955 13.2503 1.40158 12.5302C1.97365 11.1952 3.18477 10.0919 4.26105 9.29061C5.107 8.6608 6.00302 8.12153 6.75692 7.71061C6.78496 7.29852 6.8255 6.80426 6.86801 6.28596C6.88022 6.13704 6.8926 5.98614 6.90489 5.83464C7.00026 4.65906 7.1025 3.32523 7.1415 2.17434C7.15207 1.78896 7.30006 1.40432 7.58582 1.10537C7.8451 0.834122 8.132 0.722787 8.28744 0.675792C8.45128 0.626283 8.58976 0.612513 8.6616 0.607344C8.73312 0.602195 8.7948 0.602391 8.80624 0.602427L8.80768 0.602432C8.97808 0.602432 9.14728 0.630764 9.30848 0.686284C10.8398 1.21371 12.1449 2.31768 13.2689 3.54166C14.4028 4.77648 15.4709 6.26798 16.4839 7.72299C16.9738 8.42666 16.804 9.39678 16.1046 9.88968C15.4051 10.3826 14.441 10.2117 13.951 9.50801C12.9346 8.04806 11.9733 6.7157 10.9974 5.65299C10.6855 5.31333 10.3837 5.01434 10.0909 4.75535ZM5.53103 14.9141C5.56169 14.9267 5.59322 14.9384 5.62561 14.9494C5.59686 14.9397 5.56838 14.9292 5.54025 14.9178C5.53723 14.9166 5.53416 14.9154 5.53103 14.9141Z" fill="#969FA4"/>
            <path d="M44.5748 12.0365C44.0322 12.6033 43.1281 12.6236 42.5454 12.1174C42.2238 11.8138 41.7818 11.6114 41.3196 11.6114C40.335 11.6114 39.5314 12.4413 39.5314 13.4737V16.4292H41.7818C42.5654 16.4292 43.2285 17.0769 43.2285 17.8664C43.2285 18.6761 42.5654 19.3238 41.7818 19.3238H39.5314V25.3764C39.5314 26.1659 38.8682 26.8339 38.0645 26.8339C37.2809 26.8339 36.6178 26.1659 36.6178 25.3764V25.336C36.6178 23.4331 36.6178 21.5303 36.6178 19.6477V13.4535C36.6178 10.8422 38.7477 8.71667 41.3196 8.71667C42.5051 8.71667 43.6304 9.16201 44.5145 9.97172C45.0771 10.5385 45.0972 11.4495 44.5748 12.0365Z" fill="#969FA4"/>
            <path d="M49.8588 26.854C46.6037 26.854 43.9313 24.182 43.9313 20.8825C43.9313 17.6031 46.6037 14.9108 49.8588 14.9108C53.1139 14.9108 55.7864 17.6031 55.8065 20.9027C55.7864 24.2023 53.1139 26.854 49.8588 26.854ZM49.8588 17.8461C48.191 17.8461 46.8247 19.2023 46.8247 20.9027C46.8247 22.5828 48.171 23.9593 49.8588 23.9593C51.5266 23.9593 52.893 22.603 52.893 20.9027C52.8728 19.2023 51.5266 17.8461 49.8588 17.8461Z" fill="#969FA4"/>
            <path d="M62.8998 26.8339C61.3325 26.8339 59.9058 26.2469 58.7806 25.174C57.6554 24.0607 57.0124 22.583 56.9521 20.9838C56.932 19.4049 57.4946 17.8867 58.6198 16.7531C59.7049 15.6195 61.1717 14.9717 62.7591 14.911C64.3465 14.8907 65.8334 15.4778 66.9586 16.5911C67.5212 17.1174 67.5414 18.0486 66.9988 18.5952C66.4562 19.162 65.5521 19.1822 64.9894 18.6357C64.4067 18.0689 63.6231 17.745 62.7993 17.745C61.9754 17.745 61.2119 18.1094 60.6292 18.6964C60.0866 19.2834 59.745 20.0729 59.7853 20.9029C59.7853 21.7126 60.147 22.5223 60.7297 23.0688C61.3123 23.6559 62.096 23.9798 62.8998 23.9595C63.6834 23.9595 64.4067 23.6559 64.9694 23.1296C65.5119 22.583 66.4362 22.6235 66.9586 23.2105C67.5011 23.7773 67.461 24.6882 66.8782 25.2348C65.8133 26.2267 64.4268 26.8137 62.96 26.8339H62.8998Z" fill="#969FA4"/>
            <path d="M74.4531 26.9756C71.3788 26.9756 68.847 24.2834 68.847 21.004V16.4494C68.847 15.66 69.4298 15.0122 70.1732 15.0122C70.9368 15.0122 71.6602 15.66 71.6602 16.4494V21.004C71.6602 22.7246 73.0868 24.1011 74.4531 24.1011C76.0606 24.1011 77.2662 22.7246 77.2662 21.004V16.6518C77.2662 15.8421 78.09 15.2146 78.733 15.2146C79.4564 15.2146 80.0792 15.8421 80.0792 16.6518V21.004C80.0792 24.2834 77.5676 26.9756 74.4531 26.9756Z" fill="#969FA4"/>
            <path d="M85.9872 26.9554C84.48 26.9554 82.9528 26.3278 82.1896 25.5991C81.6264 25.0727 81.5664 24.1619 82.1088 23.5951C82.6312 23.008 83.5352 22.9675 84.0984 23.4938C84.52 23.8987 86.1072 24.4453 87.012 23.8582C87.2528 23.7165 87.3936 23.4533 87.3936 23.1902C87.3936 22.8663 87.112 22.6234 86.8712 22.5222C86.6504 22.4007 86.288 22.4007 85.8464 22.4007C85.284 22.4007 84.6408 22.3805 83.9776 22.1376C82.752 21.7327 81.7472 20.4574 81.6672 19.2024C81.5464 17.7044 82.1896 16.7732 82.732 16.2469C83.9176 15.1538 85.6456 14.9919 86.8912 15.1943C87.8352 15.3563 88.5392 15.7004 89.1416 16.2469C89.704 16.7732 89.7648 17.6842 89.2424 18.251C88.9408 18.5749 88.4784 18.757 88.0368 18.6963C87.8152 18.6761 87.6144 18.5951 87.4136 18.4736C87.092 18.2307 86.8512 18.0688 86.4288 17.9878C85.7256 17.8663 84.3992 17.9068 84.5 18.9392C84.52 19.0607 84.7408 19.3643 84.9224 19.4453C85.1632 19.5262 85.5048 19.5262 85.8864 19.5262C86.5096 19.5465 87.2728 19.5465 88.0568 19.9109C89.3624 20.4979 90.2064 21.7934 90.2064 23.1699C90.2064 24.3845 89.584 25.5181 88.5792 26.2266C87.7752 26.7731 86.8912 26.9554 85.9872 26.9554Z" fill="#969FA4"/>
            <path d="M99.8104 12.0365C99.268 12.6033 98.364 12.6235 97.7816 12.1174C97.46 11.8138 97.0176 11.6113 96.5552 11.6113C95.5712 11.6113 94.7672 12.4413 94.7672 13.4737V16.4291H97.0176C97.8016 16.4291 98.4648 17.0769 98.4648 17.8664C98.4648 18.6761 97.8016 19.3238 97.0176 19.3238H94.7672V25.3764C94.7672 26.1659 94.104 26.8338 93.3008 26.8338C92.5168 26.8338 91.8536 26.1659 91.8536 25.3764V25.3359C91.8536 23.4331 91.8536 21.5303 91.8536 19.6477V13.4535C91.8536 10.8421 93.984 8.71667 96.5552 8.71667C97.7408 8.71667 98.8664 9.16201 99.7504 9.97172C100.313 10.5385 100.333 11.4494 99.8104 12.0365Z" fill="#969FA4"/>
            <path d="M105.076 26.854C101.821 26.854 99.1488 24.182 99.1488 20.8825C99.1488 17.6031 101.821 14.9108 105.076 14.9108C108.331 14.9108 111.003 17.6031 111.024 20.9027C111.003 24.2023 108.331 26.854 105.076 26.854ZM105.076 17.8461C103.408 17.8461 102.042 19.2023 102.042 20.9027C102.042 22.5828 103.388 23.9593 105.076 23.9593C106.764 23.9593 108.11 22.603 108.11 20.9027C108.11 19.2023 106.764 17.8461 105.076 17.8461Z" fill="#969FA4"/>
            <path d="M122.798 24.4857C123.321 25.0322 123.301 25.9229 122.758 26.4695C122.497 26.7326 122.135 26.854 121.794 26.854C121.432 26.854 121.09 26.7124 120.81 26.429L117.494 22.9674L114.238 26.3682C113.978 26.6516 113.616 26.7933 113.254 26.7933C112.933 26.7933 112.571 26.6719 112.29 26.4087C111.747 25.8622 111.727 24.9715 112.27 24.4249L115.605 20.9432L112.25 17.4412C111.727 16.8744 111.727 15.9838 112.29 15.4574C112.832 14.9109 113.716 14.9311 114.258 15.4776L117.514 18.8987L120.85 15.417C121.372 14.8704 122.236 14.8502 122.818 15.3967C123.361 15.923 123.382 16.7935 122.838 17.3805L119.463 20.923L122.798 24.4857Z" fill="#969FA4"/>
        </g>
        <defs>
            <clipPath id="clip0_2_716__focusfox">
                <rect width="124" height="33" fill="white"/>
            </clipPath>
        </defs>
    </symbol>
    <symbol id="hand" width="" height="" viewBox="0 0 37 35" fill="none" xmlns="http://www.w3.org/2000/svg">
        <path fill-rule="evenodd" clip-rule="evenodd" d="M27.5585 0.918809C25.7552 1.73131 24.7841 3.31661 24.6454 5.65501C24.4671 8.78601 23.7536 9.85611 22.9412 8.23111C19.9885 2.40511 9.8425 0.760309 8.812 5.95221C8.6931 6.50711 8.6733 6.50711 7.3852 6.50711C1.7177 6.46741 -1.55197 17.6241 2.5104 23.1529C2.7878 23.5295 2.3915 24.8572 1.2223 27.4531C0.568402 28.8997 0.647652 29.1375 1.797 29.6528C2.8473 30.1284 3.1842 29.633 5.2847 24.4807C5.6018 23.7078 5.6018 22.8359 5.2847 22.063C4.8091 20.9137 4.2344 19.6454 3.7787 18.7933C2.2726 15.8407 3.2634 11.6792 6.0774 9.18231C8.6535 6.90341 11.2891 8.78601 9.03 11.3027C5.9188 14.7507 8.8715 18.932 13.4491 17.5647C17.5511 16.3559 17.7096 10.6289 13.6671 9.53901C11.5269 8.96431 10.6153 5.95221 12.2402 4.86231C16.2828 2.12761 21.3162 7.73571 20.7812 14.394C20.5038 17.8619 23.9915 16.2766 23.9915 13.8986C23.9915 13.2843 24.15 12.9474 24.7842 12.2142C26.1317 10.6487 26.7658 9.00401 27.0631 6.17021C27.3405 3.55441 30.7489 1.37461 31.7199 3.19771C32.3343 4.34711 31.3632 10.4902 30.2733 12.2539C29.4013 13.6807 26.31 17.1882 25.3191 17.8619C24.0311 18.7339 24.1699 19.4869 25.6957 19.7445C26.4488 19.8634 26.5677 19.8238 27.9746 18.6546C31.4822 15.7416 32.5919 14.3148 33.4242 11.5801C34.0187 9.63811 34.8906 10.074 34.9104 12.0953C34.9302 16.237 30.5904 21.0722 26.4289 22.7764C25.4381 23.1926 25.3786 23.6484 26.2307 24.2825C27.499 25.2139 29.758 24.2429 32.354 21.6469C33.979 20.0219 34.0583 19.9823 33.8799 20.6362C32.9089 24.4014 29.7779 27.5126 25.7948 28.6818C23.1592 29.4546 20.702 30.0095 18.859 30.2473C18.6014 30.3265 17.0359 30.2671 15.728 31.6542C13.8058 33.6953 16.7585 35.3203 17.7691 33.6953C18.5222 32.4667 18.7599 32.3478 20.2264 32.328C21.673 32.328 21.7522 32.3082 25.8542 31.1588C29.3419 30.1878 31.4029 29.1772 32.8891 27.7306C36.0201 24.659 37.328 20.2201 35.7031 18.0799C35.3464 17.6043 35.3463 17.5845 35.921 16.3361C37.0902 13.8392 36.8128 10.5496 35.2671 8.68691C34.7122 8.01311 34.6726 7.83481 34.6132 6.20981C34.5339 2.36541 30.7093 -0.507961 27.5585 0.918809ZM13.35 10.7478C14.9948 11.5801 14.0238 15.8803 12.1016 16.3559C11.4278 16.5342 8.4355 14.9885 10.7738 11.7585C11.8439 10.2722 12.161 10.1335 13.35 10.7478Z" fill="#000001"/>
    </symbol>
    <symbol id="in" width="" height="" viewBox="0 0 22 22" fill="none" xmlns="http://www.w3.org/2000/svg">
        <g clip-path="url(#clip0_2_1669__in)">
            <path d="M20.3715 0H1.62422C0.72617 0 0 0.708987 0 1.58555V20.4101C0 21.2867 0.72617 22 1.62422 22H20.3715C21.2695 22 22 21.2867 22 20.4144V1.58555C22 0.708987 21.2695 0 20.3715 0ZM6.52694 18.7473H3.26133V8.24569H6.52694V18.7473ZM4.89413 6.81487C3.8457 6.81487 2.99922 5.96837 2.99922 4.9242C2.99922 3.88008 3.8457 3.03359 4.89413 3.03359C5.9383 3.03359 6.78475 3.88008 6.78475 4.9242C6.78475 5.96406 5.9383 6.81487 4.89413 6.81487ZM18.7473 18.7473H15.4859V13.6426C15.4859 12.4266 15.4644 10.8582 13.7887 10.8582C12.0914 10.8582 11.8336 12.1859 11.8336 13.5566V18.7473H8.57656V8.24569H11.7047V9.68087H11.7476C12.1816 8.85587 13.2473 7.98362 14.8328 7.98362C18.1371 7.98362 18.7473 10.1578 18.7473 12.9852V18.7473Z" fill="black"/>
        </g>
        <defs>
            <clipPath id="clip0_2_1669__in">
                <rect width="22" height="22" fill="white"/>
            </clipPath>
        </defs>
    </symbol>
    <symbol id="komp" width="" height="" viewBox="0 0 55 55" fill="none" xmlns="http://www.w3.org/2000/svg">
        <path fill-rule="evenodd" clip-rule="evenodd" d="M15.6239 9.52405C13.1418 9.93714 14.8125 11.6138 16.8649 11.9054C18.5833 12.1484 21.8767 12.1484 28.9648 12.1241C37.6041 12.0998 41.3033 12.197 41.8522 12.44C43.2125 13.0718 43.8093 15.5018 44.1911 22.087C44.3343 24.4197 44.6206 27.9189 44.8354 29.8628C45.5037 36.1078 44.8833 36.7153 37.0314 37.0312C34.0004 37.1527 30.0626 37.3957 28.2965 37.5658C20.0391 38.3677 14.9079 38.2218 12.044 37.0555C9.65744 36.0835 9.77682 35.3059 9.70522 33.6778C9.53816 30.5189 9.60974 24.0795 9.91996 18.2233C10.1825 13.3148 10.4928 12.3428 12.044 11.6138C12.9986 11.1764 12.6646 10.6661 11.4713 10.7147C9.68133 10.8119 8.29714 11.4194 8.03462 14.2625C7.7005 17.7616 5.57639 36.9826 9.39489 38.6107C11.9008 39.6799 16.2682 40.7247 17.9865 40.7247C19.1798 40.7247 19.1322 42.0855 17.9389 42.45C15.1944 43.2519 17.1274 45.1959 20.755 45.3417C28.1056 45.5846 38.8452 44.9772 38.9407 44.2725C39.0362 43.5678 37.4849 41.964 36.6734 41.964C36.4109 41.964 36.2437 41.6481 36.2437 41.1864C36.2437 40.5303 36.2438 39.6069 36.9836 39.6069C40.1578 39.6069 41.8522 39.4611 42.8068 39.2424C47.4606 38.2218 47.6516 35.0143 47.6039 33.1433C47.4368 25.4889 46.0287 18.1747 46.0287 16.4495C46.0049 13.4606 44.2866 10.5203 40.6112 9.98574C39.1794 9.54835 18.0821 9.11095 15.6239 9.52405ZM28.0818 24.3954C27.7954 24.0795 25.027 20.9449 24.2633 20.143C23.3086 19.1467 22.3301 19.4626 20.2776 21.3822C19.2275 22.3785 17.5809 23.8608 16.6024 24.7113C13.2135 27.6273 12.9509 28.9394 15.7432 28.9394C16.6978 28.9394 17.1513 28.5992 19.9913 25.6347C23.6666 21.7953 23.3325 21.8196 26.5306 24.9786C28.6784 27.0926 28.4159 27.117 31.9003 24.3468C34.9073 21.5038 36.6257 19.6084 38.7974 17.3971C40.9454 15.2102 37.6518 14.2139 35.9097 15.7204C33.8572 17.4457 28.1056 24.3711 28.0818 24.3954ZM35.8143 23.2533C35.3847 24.3711 35.5995 31.8311 36.0768 32.2928C37.2462 33.4835 37.9622 30.932 37.8906 25.8777C37.8429 23.0832 36.5064 21.4066 35.8143 23.2533ZM21.996 26.2908C21.2563 28.2834 21.8767 33.7265 23.3802 33.4592C24.8837 33.1919 23.8576 27.1898 23.5234 26.3151C23.3086 25.6833 22.2347 25.659 21.996 26.2908ZM31.7093 26.8496C31.3036 27.3599 30.8979 31.1264 31.1605 32.147C31.6139 33.9694 33.4992 33.1676 33.4992 31.1507C33.4992 27.7731 32.6401 25.7076 31.7093 26.8496ZM18.1298 29.4497C17.7718 29.8142 17.9149 32.5358 18.3445 33.1189C19.1082 34.1881 19.7765 33.5078 19.7765 31.6367C19.7526 29.6927 18.9411 28.5993 18.1298 29.4497ZM26.3634 29.4497C25.7429 30.0815 26.1725 32.6815 26.9362 33.046C28.1533 33.6049 28.5591 32.0741 27.8192 29.6441C27.6999 29.2067 26.7214 29.0852 26.3634 29.4497ZM32.5208 40.0201C33.4755 40.2874 33.1175 41.1621 33.213 41.964L22.1869 42.1584C22.1869 42.0855 22.378 40.1658 22.378 40.2873C23.1416 40.263 30.1342 39.9715 31.0889 39.8986C31.4707 39.85 32.139 39.9229 32.5208 40.0201Z" fill="#006B99"/>
    </symbol>
    <symbol id="nowintech" width="" height="" viewBox="0 0 159 27" fill="none" xmlns="http://www.w3.org/2000/svg">
        <g clip-path="url(#clip0_2_728__nowintech)">
            <path opacity="0.4" d="M28.1706 10.2513L17.4472 17.8315H12.6812L1.95789 10.2513L15.0643 1.5882L28.1706 10.2513Z" fill="#969FA4"/>
            <path fill-rule="evenodd" clip-rule="evenodd" d="M14.4581 0.687181C14.8249 0.444686 15.3029 0.444686 15.6697 0.687181L28.7761 9.3503C29.0799 9.55115 29.2625 9.88926 29.2625 10.2513V24.3289C29.2625 24.9033 29.0323 25.4541 28.6226 25.8603C28.213 26.2665 27.6574 26.4947 27.078 26.4947H3.04975C2.47042 26.4947 1.9148 26.2665 1.50515 25.8603C1.0955 25.4541 0.865356 24.9033 0.865356 24.3289V10.2513C0.865356 9.88926 1.04787 9.55115 1.35171 9.3503L14.4581 0.687181ZM3.04975 10.8309V24.3289H27.078V10.8309L15.0639 2.88967L3.04975 10.8309Z" fill="#969FA4"/>
            <path fill-rule="evenodd" clip-rule="evenodd" d="M13.5732 17.2068C13.9213 17.6952 13.804 18.371 13.3113 18.716L2.9247 25.9902C2.43201 26.3353 1.75049 26.2189 1.40247 25.7305C1.05445 25.242 1.17173 24.5663 1.66442 24.2212L12.051 16.947C12.5437 16.602 13.2253 16.7182 13.5732 17.2068Z" fill="#969FA4"/>
            <path fill-rule="evenodd" clip-rule="evenodd" d="M16.555 17.2066C16.9029 16.7182 17.5845 16.6019 18.0771 16.9469L28.464 24.2212C28.9566 24.5662 29.0739 25.2419 28.7259 25.7305C28.3779 26.219 27.6964 26.3353 27.2037 25.9902L16.8169 18.7159C16.3242 18.3709 16.2069 17.6952 16.555 17.2066Z" fill="#969FA4"/>
            <path fill-rule="evenodd" clip-rule="evenodd" d="M1.06833 9.62264C1.4185 9.13568 2.10053 9.02237 2.59169 9.36962L13.0304 16.7486H17.0975L27.5363 9.36962C28.0275 9.02237 28.7095 9.13568 29.0597 9.62264C29.4098 10.1097 29.2955 10.7859 28.8044 11.1331L18.0811 18.7133C17.896 18.8441 17.6744 18.9145 17.447 18.9145H12.681C12.4536 18.9145 12.232 18.8441 12.0469 18.7133L1.32359 11.1331C0.832436 10.7859 0.718152 10.1097 1.06833 9.62264Z" fill="#969FA4"/>
            <path d="M41.0166 22.5038C40.7238 22.5038 40.4772 22.4045 40.2769 22.2058C40.0765 22.0072 39.9764 21.7627 39.9764 21.4724V7.78953C39.9764 7.37698 40.1228 7.02555 40.4156 6.73524C40.7084 6.42965 41.0628 6.27686 41.479 6.27686H41.7794C42.2726 6.27686 42.6964 6.50604 43.0509 6.96443L51.9507 19.7076V7.33114C51.9507 7.04083 52.0508 6.79636 52.2512 6.59772C52.4515 6.38381 52.698 6.27686 52.9908 6.27686C53.2837 6.27686 53.5303 6.38381 53.7306 6.59772C53.9463 6.79636 54.0542 7.04083 54.0542 7.33114V21.014C54.0542 21.4266 53.9001 21.778 53.5919 22.0683C53.2991 22.3586 52.9446 22.5038 52.5285 22.5038H52.2512C52.0046 22.5038 51.7734 22.4503 51.5576 22.3433C51.3419 22.2211 51.1647 22.0683 51.026 21.885L42.0799 9.07302V21.4724C42.0799 21.7627 41.972 22.0072 41.7563 22.2058C41.556 22.4045 41.3094 22.5038 41.0166 22.5038Z" fill="#969FA4"/>
            <path d="M63.0017 22.6184C61.8151 22.6184 60.7748 22.3663 59.881 21.8621C58.9872 21.3578 58.2937 20.6473 57.8006 19.7306C57.3228 18.7985 57.0839 17.7366 57.0839 16.5447C57.0839 15.353 57.3228 14.2987 57.8006 13.3819C58.2937 12.4498 58.9872 11.7317 59.881 11.2275C60.7748 10.7233 61.8151 10.4711 63.0017 10.4711C64.173 10.4711 65.2055 10.7233 66.0993 11.2275C66.9931 11.7317 67.6866 12.4498 68.1798 13.3819C68.6729 14.2987 68.9195 15.353 68.9195 16.5447C68.9195 17.7366 68.6729 18.7985 68.1798 19.7306C67.6866 20.6473 66.9931 21.3578 66.0993 21.8621C65.2055 22.3663 64.173 22.6184 63.0017 22.6184ZM63.0017 20.7161C63.6336 20.7161 64.2346 20.571 64.8048 20.2806C65.3904 19.9903 65.8681 19.5319 66.238 18.9055C66.6233 18.279 66.816 17.4844 66.816 16.5218C66.816 15.5745 66.6233 14.7876 66.238 14.1612C65.8681 13.5347 65.3904 13.0839 64.8048 12.8089C64.2346 12.5186 63.6336 12.3734 63.0017 12.3734C62.3545 12.3734 61.7381 12.5186 61.1524 12.8089C60.5822 13.0839 60.1122 13.5347 59.7423 14.1612C59.3725 14.7876 59.1876 15.5745 59.1876 16.5218C59.1876 17.4844 59.3725 18.279 59.7423 18.9055C60.1122 19.5319 60.5822 19.9903 61.1524 20.2806C61.7381 20.571 62.3545 20.7161 63.0017 20.7161Z" fill="#969FA4"/>
            <path d="M75.2201 22.5038C74.9119 22.5038 74.6345 22.4121 74.3879 22.2288C74.1413 22.0454 73.9718 21.8162 73.8794 21.5412L70.5969 12.0067C70.5506 11.8692 70.5275 11.7394 70.5275 11.6171C70.5275 11.3268 70.6277 11.0823 70.828 10.8837C71.0284 10.685 71.2749 10.5858 71.5677 10.5858C71.7835 10.5858 71.9761 10.6468 72.1457 10.7691C72.3306 10.876 72.4538 11.0212 72.5155 11.2046L75.2201 20.0285L77.9016 11.4108C77.9787 11.1663 78.1174 10.9678 78.3177 10.8149C78.5334 10.6621 78.7724 10.5858 79.0343 10.5858C79.2963 10.5858 79.5275 10.6621 79.7278 10.8149C79.9435 10.9678 80.09 11.1663 80.167 11.4108L82.8485 20.0285L85.5531 11.2046C85.6147 11.0212 85.7303 10.876 85.8999 10.7691C86.0848 10.6468 86.2852 10.5858 86.5009 10.5858C86.7937 10.5858 87.0403 10.685 87.2406 10.8837C87.4409 11.0823 87.5411 11.3268 87.5411 11.6171C87.5411 11.7394 87.518 11.8692 87.4718 12.0067L84.1892 21.5412C84.0967 21.8162 83.9273 22.0454 83.6807 22.2288C83.4341 22.4121 83.1567 22.5038 82.8485 22.5038C82.5403 22.5038 82.2629 22.4121 82.0163 22.2288C81.7697 22.0454 81.5925 21.8086 81.4847 21.5182L79.0343 13.9319L76.584 21.5182C76.4761 21.8086 76.2989 22.0454 76.0523 22.2288C75.8057 22.4121 75.5283 22.5038 75.2201 22.5038Z" fill="#969FA4"/>
            <path fill-rule="evenodd" clip-rule="evenodd" d="M43.1718 6.87179C43.1734 6.87375 43.1748 6.87574 43.1762 6.87776L51.7961 19.2201V7.33119C51.7961 7.00294 51.9108 6.71996 52.1396 6.49205C52.3685 6.24866 52.6551 6.12457 52.9899 6.12457C53.3238 6.12457 53.6098 6.24796 53.8383 6.49C54.0825 6.71663 54.2069 7.00013 54.2069 7.33119V21.014C54.2069 21.4687 54.0353 21.8593 53.6982 22.1774C53.3767 22.4955 52.9836 22.6561 52.5276 22.6561H52.2502C51.9803 22.6561 51.7256 22.5973 51.488 22.4796C51.4855 22.4784 51.483 22.477 51.4805 22.4756C51.248 22.3439 51.0544 22.1776 50.9022 21.9763L50.8988 21.9717L42.2327 9.5607V21.4724C42.2327 21.8044 42.1075 22.0886 41.862 22.3156C41.6322 22.5425 41.3467 22.6561 41.0157 22.6561C40.6837 22.6561 40.3976 22.5418 40.1673 22.3136C39.9371 22.0853 39.8218 21.8016 39.8218 21.4724V7.78957C39.8218 7.3375 39.9838 6.94773 40.3046 6.62896C40.6255 6.29477 41.0194 6.12457 41.478 6.12457H41.7785C42.3284 6.12457 42.7943 6.38349 43.1718 6.87179ZM40.4147 6.73528C40.7075 6.42969 41.062 6.2769 41.478 6.2769H41.7785C42.2717 6.2769 42.6954 6.50608 43.0499 6.96447L51.9498 19.7076V7.33119C51.9498 7.04087 52.0499 6.79639 52.2502 6.59776C52.4506 6.38385 52.6972 6.2769 52.9899 6.2769C53.2827 6.2769 53.5293 6.38385 53.7297 6.59776C53.9454 6.79639 54.0533 7.04087 54.0533 7.33119V21.014C54.0533 21.4266 53.8992 21.778 53.591 22.0683C53.2982 22.3586 52.9437 22.5038 52.5276 22.5038H52.2502C52.0037 22.5038 51.7725 22.4503 51.5567 22.3434C51.341 22.2212 51.1637 22.0683 51.0251 21.885L42.079 9.07304V21.4724C42.079 21.7628 41.9712 22.0072 41.7554 22.2058C41.5551 22.4045 41.3085 22.5038 41.0157 22.5038C40.7229 22.5038 40.4763 22.4045 40.276 22.2058C40.0756 22.0072 39.9755 21.7628 39.9755 21.4724V7.78957C39.9755 7.37702 40.1218 7.02559 40.4147 6.73528ZM57.6626 19.7995C57.1725 18.8433 56.9294 17.7572 56.9294 16.5447C56.9294 15.3324 57.1725 14.2535 57.6631 13.312L57.6636 13.3112C58.1699 12.3542 58.8838 11.6142 59.8041 11.0951C60.7245 10.5759 61.7917 10.3188 63.0008 10.3188C64.1949 10.3188 65.2543 10.5761 66.1744 11.0951C67.0944 11.6141 67.8082 12.3538 68.3146 13.3105C68.8211 14.2523 69.0722 15.3318 69.0722 16.5447C69.0722 17.7579 68.8211 18.8447 68.3149 19.8014L68.3144 19.8022C67.8079 20.7439 67.0939 21.4757 66.1744 21.9945C65.2543 22.5135 64.1949 22.7708 63.0008 22.7708C61.7917 22.7708 60.7245 22.5136 59.8041 21.9945C58.8845 21.4757 58.1706 20.7439 57.664 19.8022L57.6626 19.7995ZM68.1788 13.3819C67.6857 12.4499 66.9922 11.7317 66.0984 11.2275C65.2046 10.7233 64.172 10.4711 63.0008 10.4711C61.8142 10.4711 60.7739 10.7233 59.8801 11.2275C58.9863 11.7317 58.2927 12.4499 57.7996 13.3819C57.3219 14.2987 57.083 15.353 57.083 16.5447C57.083 17.7366 57.3219 18.7985 57.7996 19.7306C58.2927 20.6473 58.9863 21.3579 59.8801 21.8621C60.7739 22.3663 61.8142 22.6184 63.0008 22.6184C64.172 22.6184 65.2046 22.3663 66.0984 21.8621C66.9922 21.3579 67.6857 20.6473 68.1788 19.7306C68.672 18.7985 68.9186 17.7366 68.9186 16.5447C68.9186 15.353 68.672 14.2987 68.1788 13.3819ZM64.7337 20.1451L64.7351 20.1444C65.291 19.8688 65.7478 19.4326 66.1045 18.8285L66.1059 18.8261C66.4725 18.23 66.6613 17.465 66.6613 16.5218C66.6613 15.5945 66.4728 14.837 66.1059 14.2405L66.1045 14.2381C65.7482 13.6346 65.2922 13.2068 64.7381 12.9466L64.7336 12.9445C64.1849 12.6651 63.6079 12.5257 63.0008 12.5257C62.3776 12.5257 61.7847 12.6653 61.2202 12.9452L61.2187 12.9459C60.6798 13.2058 60.2309 13.6335 59.8739 14.2381C59.5215 14.8351 59.3402 15.5935 59.3402 16.5218C59.3402 17.4659 59.5217 18.2318 59.8739 18.8285C60.231 19.4334 60.6806 19.8695 61.221 20.1448C61.7853 20.4244 62.378 20.5638 63.0008 20.5638C63.6079 20.5638 64.1849 20.4245 64.7337 20.1451ZM61.1515 20.2807C60.5813 19.9903 60.1112 19.5319 59.7414 18.9055C59.3715 18.279 59.1865 17.4845 59.1865 16.5218C59.1865 15.5746 59.3715 14.7876 59.7414 14.1611C60.1112 13.5347 60.5813 13.0839 61.1515 12.8089C61.737 12.5186 62.3535 12.3735 63.0008 12.3735C63.6327 12.3735 64.2336 12.5186 64.8038 12.8089C65.3895 13.0839 65.8672 13.5347 66.2371 14.1611C66.6223 14.7876 66.8149 15.5746 66.8149 16.5218C66.8149 17.4845 66.6223 18.279 66.2371 18.9055C65.8672 19.5319 65.3895 19.9903 64.8038 20.2807C64.2336 20.5709 63.6327 20.7161 63.0008 20.7161C62.3535 20.7161 61.737 20.5709 61.1515 20.2807ZM87.4709 12.0067L84.1884 21.5412C84.0959 21.8163 83.9263 22.0454 83.6798 22.2288C83.4332 22.4121 83.1558 22.5038 82.8476 22.5038C82.5393 22.5038 82.262 22.4121 82.0154 22.2288C81.7689 22.0454 81.5916 21.8086 81.4837 21.5183L79.0334 13.932L76.5831 21.5183C76.4752 21.8086 76.2979 22.0454 76.0514 22.2288C75.8049 22.4121 75.5274 22.5038 75.2192 22.5038C74.911 22.5038 74.6336 22.4121 74.387 22.2288C74.1405 22.0454 73.9709 21.8163 73.8785 21.5412L70.5959 12.0067C70.5497 11.8692 70.5266 11.7393 70.5266 11.6171C70.5266 11.3268 70.6267 11.0823 70.8271 10.8837C71.0275 10.685 71.274 10.5857 71.5669 10.5857C71.7826 10.5857 71.9752 10.6469 72.1447 10.7691C72.3297 10.876 72.4529 11.0212 72.5146 11.2046L75.2192 20.0285L77.9007 11.4108C77.9778 11.1663 78.1164 10.9677 78.3168 10.8149C78.5325 10.6621 78.7714 10.5857 79.0334 10.5857C79.2954 10.5857 79.5265 10.6621 79.7269 10.8149C79.9426 10.9677 80.0891 11.1663 80.1661 11.4108L82.8476 20.0285L85.5522 11.2046C85.6138 11.0212 85.7294 10.876 85.899 10.7691C86.0839 10.6469 86.2843 10.5857 86.5 10.5857C86.7928 10.5857 87.0394 10.685 87.2397 10.8837C87.4401 11.0823 87.5402 11.3268 87.5402 11.6171C87.5402 11.7393 87.5171 11.8692 87.4709 12.0067ZM85.8151 10.6414C86.0241 10.5037 86.2535 10.4334 86.5 10.4334C86.832 10.4334 87.1181 10.5478 87.3484 10.776C87.5786 11.0042 87.6938 11.2879 87.6938 11.6171C87.6938 11.7584 87.6671 11.9046 87.6166 12.0549L87.6163 12.0559L84.3341 21.5894C84.334 21.5896 84.3339 21.5899 84.3338 21.5902C84.2309 21.8959 84.0418 22.1499 83.772 22.3506C83.4988 22.5538 83.189 22.6561 82.8476 22.6561C82.5061 22.6561 82.1964 22.5538 81.9232 22.3506C81.6526 22.1494 81.4575 21.8885 81.3396 21.5709C81.3389 21.5689 81.3381 21.5668 81.3374 21.5647L79.0334 14.4314L76.7293 21.5647C76.7287 21.5668 76.728 21.5689 76.7272 21.5709C76.6093 21.8885 76.4142 22.1494 76.1436 22.3506C75.8704 22.5538 75.5606 22.6561 75.2192 22.6561C74.8777 22.6561 74.568 22.5538 74.2949 22.3506C74.0249 22.1499 73.8359 21.8959 73.7329 21.5902C73.7328 21.5899 73.7328 21.5896 73.7327 21.5894L70.4502 12.0549C70.3996 11.9046 70.3729 11.7584 70.3729 11.6171C70.3729 11.2879 70.4883 11.0042 70.7184 10.776C70.9487 10.5478 71.2348 10.4334 71.5669 10.4334C71.8114 10.4334 72.0337 10.5026 72.2289 10.6414C72.4391 10.7648 72.5865 10.9367 72.6603 11.1564L72.6617 11.1602L75.2203 19.5083L77.7539 11.366L77.7541 11.3654C77.8403 11.0917 77.9971 10.8665 78.2232 10.6942L78.2275 10.691C78.4689 10.52 78.739 10.4334 79.0334 10.4334C79.327 10.4334 79.5906 10.5195 79.8183 10.6925C80.0594 10.8638 80.2257 11.0892 80.3127 11.3654L80.3129 11.366L82.8465 19.5083L85.4064 11.1564C85.4794 10.9393 85.6175 10.7665 85.8151 10.6414Z" fill="#969FA4"/>
            <path d="M92.3096 22.5038C92.0162 22.5038 91.7693 22.4045 91.569 22.2058C91.3688 22.0072 91.2686 21.7627 91.2686 21.4724V7.33114C91.2686 7.04083 91.3688 6.79636 91.569 6.59772C91.7693 6.38381 92.0162 6.27686 92.3096 6.27686C92.6021 6.27686 92.849 6.38381 93.0492 6.59772C93.2645 6.79636 93.3725 7.04083 93.3725 7.33114V21.4724C93.3725 21.7627 93.2645 22.0072 93.0492 22.2058C92.849 22.4045 92.6021 22.5038 92.3096 22.5038Z" fill="#969FA4"/>
            <path d="M98.2594 22.5038C97.966 22.5038 97.72 22.4045 97.5197 22.2059C97.3194 22.0072 97.2193 21.7627 97.2193 21.4724V11.6401C97.2193 11.3497 97.3194 11.1052 97.5197 10.9066C97.72 10.6927 97.966 10.5858 98.2594 10.5858C98.5519 10.5858 98.7988 10.6927 98.999 10.9066C99.2143 11.1052 99.3223 11.3497 99.3223 11.6401V12.5797C99.9082 11.9379 100.54 11.4261 101.218 11.0441C101.896 10.6621 102.697 10.4711 103.622 10.4711C104.47 10.4711 105.202 10.6698 105.818 11.067C106.45 11.4643 106.928 12.0067 107.251 12.6943C107.59 13.3819 107.76 14.1383 107.76 14.9633V21.4724C107.76 21.7627 107.652 22.0072 107.437 22.2059C107.236 22.4045 106.989 22.5038 106.697 22.5038C106.404 22.5038 106.158 22.4045 105.957 22.2059C105.756 22.0072 105.656 21.7627 105.656 21.4724V15.1926C105.656 13.3284 104.809 12.3963 103.114 12.3963C102.343 12.3963 101.649 12.595 101.033 12.9922C100.432 13.3896 99.8617 13.9243 99.3223 14.5966V21.4724C99.3223 21.7627 99.2143 22.0072 98.999 22.2059C98.7988 22.4045 98.5519 22.5038 98.2594 22.5038Z" fill="#969FA4"/>
            <path fill-rule="evenodd" clip-rule="evenodd" d="M92.3087 22.6561C91.9767 22.6561 91.6912 22.5418 91.461 22.3136C91.2309 22.0853 91.1149 21.8016 91.1149 21.4724V7.33119C91.1149 7.00294 91.23 6.71997 91.4584 6.49206C91.6877 6.24866 91.9741 6.12457 92.3087 6.12457C92.6426 6.12457 92.9289 6.24796 93.1573 6.49C93.4015 6.71663 93.5263 7.00012 93.5263 7.33119V21.4724C93.5263 21.8044 93.4007 22.0886 93.1556 22.3156C92.9254 22.5425 92.6399 22.6561 92.3087 22.6561ZM93.0484 22.2058C93.2645 22.0072 93.3726 21.7628 93.3726 21.4724V7.33119C93.3726 7.04087 93.2645 6.79639 93.0484 6.59776C92.8481 6.38385 92.6022 6.2769 92.3087 6.2769C92.0162 6.2769 91.7694 6.38385 91.5691 6.59776C91.3688 6.79639 91.2687 7.04087 91.2687 7.33119V21.4724C91.2687 21.7628 91.3688 22.0072 91.5691 22.2058C91.7694 22.4045 92.0162 22.5038 92.3087 22.5038C92.6022 22.5038 92.8481 22.4045 93.0484 22.2058ZM98.2594 22.6561C97.9273 22.6561 97.641 22.5418 97.4108 22.3136C97.1806 22.0853 97.0647 21.8016 97.0647 21.4724V11.64C97.0647 11.3118 97.1798 11.0288 97.409 10.8009C97.6374 10.5575 97.9238 10.4334 98.2594 10.4334C98.5932 10.4334 98.8787 10.5568 99.1071 10.7989C99.3513 11.0255 99.476 11.309 99.476 11.64V12.1964C99.9952 11.6734 100.55 11.2447 101.142 10.9117C101.847 10.5144 102.675 10.3188 103.622 10.3188C104.495 10.3188 105.256 10.5235 105.901 10.9388C106.557 11.3518 107.054 11.9162 107.39 12.6287C107.74 13.3383 107.914 14.1174 107.914 14.9633V21.4724C107.914 21.8044 107.788 22.0886 107.543 22.3156C107.313 22.5425 107.027 22.6561 106.696 22.6561C106.364 22.6561 106.079 22.5418 105.848 22.3136C105.618 22.0853 105.502 21.8016 105.502 21.4724V15.1925C105.502 14.2803 105.295 13.6245 104.907 13.1974C104.521 12.7733 103.933 12.5486 103.114 12.5486C102.371 12.5486 101.707 12.7394 101.118 13.1195C100.544 13.4983 99.997 14.0075 99.476 14.65V21.4724C99.476 21.8044 99.3504 22.0886 99.1053 22.3156C98.8752 22.5425 98.5897 22.6561 98.2594 22.6561ZM98.999 22.2058C99.2143 22.0072 99.3223 21.7628 99.3223 21.4724V14.5966C99.8617 13.9243 100.432 13.3896 101.033 12.9922C101.649 12.595 102.342 12.3964 103.114 12.3964C104.808 12.3964 105.656 13.3284 105.656 15.1925V21.4724C105.656 21.7628 105.756 22.0072 105.956 22.2058C106.157 22.4045 106.404 22.5038 106.696 22.5038C106.989 22.5038 107.235 22.4045 107.437 22.2058C107.652 22.0072 107.76 21.7628 107.76 21.4724V14.9633C107.76 14.1382 107.59 13.3819 107.251 12.6944C106.928 12.0067 106.45 11.4643 105.818 11.067C105.202 10.6698 104.469 10.4711 103.622 10.4711C102.697 10.4711 101.896 10.6621 101.218 11.0441C100.599 11.393 100.018 11.85 99.476 12.4155C99.4242 12.4692 99.3733 12.524 99.3223 12.5797V11.64C99.3223 11.3498 99.2143 11.1053 98.999 10.9066C98.7988 10.6927 98.5519 10.5857 98.2594 10.5857C97.966 10.5857 97.72 10.6927 97.5189 10.9066C97.3186 11.1053 97.2184 11.3498 97.2184 11.64V21.4724C97.2184 21.7628 97.3186 22.0072 97.5189 22.2058C97.72 22.4045 97.966 22.5038 98.2594 22.5038C98.5519 22.5038 98.7988 22.4045 98.999 22.2058Z" fill="#969FA4"/>
            <path d="M114.904 22.5037C114.611 22.5037 114.365 22.4044 114.164 22.2058C113.964 22.0071 113.863 21.7627 113.863 21.4723V8.33956H109.148C108.87 8.33956 108.639 8.24789 108.455 8.06454C108.269 7.88118 108.177 7.65199 108.177 7.37695C108.177 7.10192 108.269 6.87272 108.455 6.68937C108.639 6.49073 108.87 6.39142 109.148 6.39142H120.66C120.938 6.39142 121.169 6.49073 121.353 6.68937C121.553 6.87272 121.653 7.10192 121.653 7.37695C121.653 7.65199 121.553 7.88118 121.353 8.06454C121.169 8.24789 120.938 8.33956 120.66 8.33956H115.967V21.4723C115.967 21.7627 115.859 22.0071 115.644 22.2058C115.444 22.4044 115.197 22.5037 114.904 22.5037Z" fill="#969FA4"/>
            <path d="M127.57 22.6183C125.69 22.6183 124.218 22.0911 123.155 21.0368C122.107 19.9673 121.582 18.4699 121.582 16.5446C121.582 15.4598 121.783 14.459 122.184 13.5422C122.585 12.6254 123.2 11.8844 124.033 11.3191C124.865 10.7537 125.89 10.471 127.108 10.471C128.248 10.471 129.234 10.7384 130.066 11.2732C130.898 11.7927 131.531 12.4956 131.962 13.3818C132.393 14.2528 132.609 15.2077 132.609 16.2467C132.609 16.537 132.509 16.7815 132.309 16.9801C132.124 17.1788 131.87 17.2781 131.546 17.2781H123.709C123.833 18.3476 124.233 19.1803 124.912 19.7763C125.59 20.3722 126.538 20.6701 127.755 20.6701C128.402 20.6701 128.965 20.609 129.442 20.4868C129.935 20.3645 130.413 20.1888 130.875 19.9597C130.998 19.8985 131.137 19.868 131.292 19.868C131.538 19.868 131.754 19.952 131.938 20.1201C132.124 20.2881 132.216 20.502 132.216 20.7618C132.216 21.0979 132.016 21.3807 131.615 21.6098C131.014 21.946 130.42 22.1981 129.835 22.3662C129.249 22.5343 128.495 22.6183 127.57 22.6183ZM130.528 15.582C130.483 14.8333 130.282 14.2069 129.928 13.7026C129.588 13.1984 129.165 12.8317 128.656 12.6025C128.148 12.358 127.631 12.2359 127.108 12.2359C126.583 12.2359 126.068 12.358 125.559 12.6025C125.05 12.8317 124.626 13.1984 124.287 13.7026C123.948 14.2069 123.756 14.8333 123.709 15.582H130.528Z" fill="#969FA4"/>
            <path d="M140.848 22.6183C139.738 22.6183 138.714 22.3738 137.774 21.8849C136.833 21.3959 136.079 20.693 135.508 19.7763C134.953 18.8595 134.676 17.7823 134.676 16.5446C134.676 15.307 134.953 14.2298 135.508 13.313C136.079 12.3963 136.833 11.6934 137.774 11.2045C138.714 10.7155 139.738 10.471 140.848 10.471C141.665 10.471 142.366 10.578 142.952 10.7919C143.552 10.9905 144.108 11.2503 144.616 11.5711C144.925 11.7698 145.078 12.0372 145.078 12.3733C145.078 12.6025 144.986 12.8164 144.801 13.0151C144.631 13.1984 144.431 13.2901 144.2 13.2901C144.03 13.2901 143.861 13.2443 143.691 13.1525C143.183 12.8928 142.743 12.7095 142.374 12.6025C142.02 12.4802 141.572 12.4192 141.033 12.4192C139.707 12.4192 138.667 12.8012 137.912 13.5651C137.157 14.3138 136.78 15.307 136.78 16.5446C136.78 17.7823 137.157 18.7831 137.912 19.5471C138.667 20.2958 139.707 20.6701 141.033 20.6701C141.572 20.6701 142.02 20.6167 142.374 20.5097C142.743 20.3875 143.183 20.1965 143.691 19.9367C143.861 19.8451 144.03 19.7992 144.2 19.7992C144.431 19.7992 144.631 19.8985 144.801 20.0971C144.986 20.2805 145.078 20.4868 145.078 20.7159C145.078 21.0521 144.925 21.3195 144.616 21.5182C144.108 21.8391 143.552 22.1064 142.952 22.3204C142.366 22.5189 141.665 22.6183 140.848 22.6183Z" fill="#969FA4"/>
            <path d="M148.758 22.5037C148.466 22.5037 148.219 22.4044 148.018 22.2058C147.818 22.0071 147.718 21.7627 147.718 21.4723V6.59769C147.718 6.30738 147.818 6.0629 148.018 5.86427C148.219 5.65036 148.466 5.5434 148.758 5.5434C149.052 5.5434 149.297 5.65036 149.498 5.86427C149.714 6.0629 149.822 6.30738 149.822 6.59769V12.5797C150.408 11.9379 151.039 11.4261 151.718 11.0441C152.396 10.6621 153.197 10.4711 154.121 10.4711C154.969 10.4711 155.701 10.6697 156.317 11.067C156.95 11.4642 157.427 12.0067 157.751 12.6943C158.09 13.3818 158.259 14.1382 158.259 14.9632V21.4723C158.259 21.7627 158.151 22.0071 157.935 22.2058C157.735 22.4044 157.489 22.5037 157.196 22.5037C156.903 22.5037 156.656 22.4044 156.456 22.2058C156.256 22.0071 156.156 21.7627 156.156 21.4723V15.1925C156.156 13.3283 155.308 12.3963 153.613 12.3963C152.842 12.3963 152.149 12.5949 151.532 12.9922C150.931 13.3895 150.361 13.9243 149.822 14.5966V21.4723C149.822 21.7627 149.714 22.0071 149.498 22.2058C149.297 22.4044 149.052 22.5037 148.758 22.5037Z" fill="#969FA4"/>
            <path fill-rule="evenodd" clip-rule="evenodd" d="M123.044 21.1431C121.961 20.0375 121.429 18.4976 121.429 16.5447C121.429 15.4408 121.633 14.4192 122.043 13.4817C122.455 12.5386 123.09 11.775 123.946 11.1935C124.809 10.6074 125.866 10.3188 127.108 10.3188C128.273 10.3188 129.288 10.5922 130.149 11.1449C131.005 11.6797 131.656 12.404 132.1 13.3152C132.543 14.2084 132.762 15.1864 132.762 16.2468C132.762 16.5749 132.648 16.8578 132.42 17.0858C132.2 17.32 131.902 17.4305 131.546 17.4305H123.884C124.025 18.3878 124.405 19.1273 125.014 19.6623C125.655 20.2262 126.561 20.5179 127.754 20.5179C128.393 20.5179 128.942 20.4576 129.404 20.3393L129.405 20.3391C129.887 20.2196 130.355 20.0478 130.807 19.8235C130.954 19.7506 131.116 19.7157 131.292 19.7157C131.577 19.7157 131.829 19.8146 132.042 20.0079C132.261 20.2062 132.37 20.4616 132.37 20.7619C132.37 21.1716 132.12 21.4967 131.692 21.7419L131.691 21.7426C131.08 22.0838 130.477 22.3408 129.878 22.5126C129.273 22.6861 128.502 22.7706 127.57 22.7706C125.659 22.7706 124.145 22.2342 123.046 21.1446L123.044 21.1431ZM123.729 17.4305C123.721 17.3802 123.715 17.3295 123.709 17.2782H131.546C131.869 17.2782 132.124 17.1789 132.308 16.9802C132.509 16.7815 132.609 16.5371 132.609 16.2468C132.609 15.2078 132.393 14.2528 131.962 13.3819C131.53 12.4957 130.898 11.7928 130.066 11.2733C129.234 10.7385 128.248 10.4711 127.108 10.4711C125.89 10.4711 124.865 10.7537 124.033 11.3191C123.2 11.8844 122.585 12.6255 122.183 13.5423C121.783 14.4591 121.582 15.4599 121.582 16.5447C121.582 18.47 122.107 19.9674 123.155 21.0369C124.218 22.0912 125.69 22.6184 127.57 22.6184C128.494 22.6184 129.249 22.5344 129.835 22.3663C130.42 22.1982 131.014 21.9461 131.615 21.6099C132.016 21.3808 132.216 21.098 132.216 20.7619C132.216 20.5021 132.124 20.2882 131.938 20.1201C131.754 19.9521 131.538 19.8681 131.292 19.8681C131.137 19.8681 130.998 19.8986 130.875 19.9597C130.413 20.1889 129.936 20.3646 129.442 20.4869C128.964 20.6091 128.402 20.6702 127.754 20.6702C126.537 20.6702 125.59 20.3723 124.912 19.7763C124.266 19.2091 123.872 18.427 123.729 17.4305ZM129.799 13.7872C129.475 13.3044 129.073 12.9576 128.592 12.7413L128.589 12.7397C128.1 12.5045 127.607 12.3882 127.108 12.3882C126.609 12.3882 126.115 12.5045 125.626 12.7396L125.622 12.7413C125.142 12.9576 124.739 13.3044 124.415 13.7872C124.118 14.2285 123.937 14.7741 123.875 15.4298H130.362C130.3 14.7753 130.111 14.2307 129.801 13.7898L129.799 13.7872ZM130.517 15.4298C130.521 15.48 130.526 15.5307 130.528 15.5821H123.709C123.713 15.5307 123.716 15.48 123.72 15.4298C123.783 14.7481 123.972 14.1724 124.287 13.7027C124.626 13.1985 125.05 12.8318 125.558 12.6026C126.067 12.3581 126.583 12.2359 127.108 12.2359C127.631 12.2359 128.148 12.3581 128.656 12.6026C129.165 12.8318 129.589 13.1985 129.928 13.7027C130.258 14.1724 130.454 14.7481 130.517 15.4298ZM135.378 19.8563L135.377 19.8547C134.805 18.9108 134.522 17.8055 134.522 16.5447C134.522 15.2839 134.805 14.1787 135.377 13.2348L135.378 13.2331C135.962 12.2937 136.737 11.5716 137.702 11.0696C138.665 10.5687 139.714 10.3188 140.848 10.3188C141.676 10.3188 142.395 10.427 143.002 10.6483C143.614 10.8505 144.18 11.1153 144.698 11.4428L144.7 11.4435C145.047 11.6675 145.232 11.9808 145.232 12.3734C145.232 12.6477 145.12 12.8971 144.914 13.1185C144.718 13.3301 144.477 13.4425 144.2 13.4425C144.001 13.4425 143.808 13.3888 143.619 13.2873C143.117 13.0304 142.687 12.852 142.33 12.7489L142.327 12.7477L142.323 12.7464C141.991 12.6317 141.562 12.5715 141.033 12.5715C139.739 12.5715 138.742 12.9435 138.022 13.6718L138.021 13.673C137.3 14.3882 136.933 15.3402 136.933 16.5447C136.933 17.7489 137.299 18.709 138.021 19.4399C138.741 20.1532 139.738 20.5179 141.033 20.5179C141.562 20.5179 141.992 20.4654 142.327 20.3646C142.686 20.2458 143.117 20.059 143.619 19.8022C143.808 19.7006 144.001 19.6469 144.2 19.6469C144.48 19.6469 144.72 19.7694 144.914 19.994C145.12 20.2009 145.232 20.443 145.232 20.716C145.232 21.1088 145.047 21.422 144.7 21.646L144.698 21.6468C144.18 21.974 143.615 22.2462 143.003 22.4638L143.001 22.4645C142.395 22.6701 141.676 22.7706 140.848 22.7706C139.714 22.7706 138.665 22.5208 137.702 22.0198C136.737 21.5178 135.962 20.7958 135.378 19.8563ZM144.801 20.0972C144.631 19.8986 144.431 19.7993 144.2 19.7993C144.03 19.7993 143.861 19.8452 143.691 19.9368C143.183 20.1966 142.743 20.3875 142.374 20.5098C142.02 20.6167 141.572 20.6702 141.033 20.6702C139.707 20.6702 138.667 20.2959 137.912 19.5472C137.157 18.7832 136.78 17.7824 136.78 16.5447C136.78 15.3071 137.157 14.3139 137.912 13.5652C138.667 12.8012 139.707 12.4193 141.033 12.4193C141.572 12.4193 142.02 12.4803 142.374 12.6026C142.743 12.7096 143.183 12.8929 143.691 13.1526C143.861 13.2444 144.03 13.2902 144.2 13.2902C144.431 13.2902 144.631 13.1985 144.801 13.0151C144.986 12.8165 145.078 12.6026 145.078 12.3734C145.078 12.0373 144.924 11.7699 144.616 11.5712C144.108 11.2504 143.552 10.9906 142.952 10.792C142.366 10.5781 141.665 10.4711 140.848 10.4711C139.738 10.4711 138.713 10.7156 137.773 11.2045C136.833 11.6934 136.079 12.3963 135.508 13.3131C134.953 14.2299 134.676 15.3071 134.676 16.5447C134.676 17.7824 134.953 18.8596 135.508 19.7763C136.079 20.6931 136.833 21.396 137.773 21.885C138.713 22.3739 139.738 22.6184 140.848 22.6184C141.665 22.6184 142.366 22.519 142.952 22.3204C143.552 22.1065 144.108 21.8391 144.616 21.5182C144.924 21.3196 145.078 21.0522 145.078 20.716C145.078 20.4869 144.986 20.2806 144.801 20.0972ZM114.903 22.6561C114.571 22.6561 114.286 22.5418 114.056 22.3136C113.826 22.0853 113.71 21.8016 113.71 21.4724V8.49192H109.148C108.832 8.49192 108.561 8.38606 108.346 8.17227C108.13 7.95848 108.023 7.68969 108.023 7.37698C108.023 7.06532 108.13 6.79729 108.343 6.58385C108.557 6.35485 108.83 6.23913 109.148 6.23913H120.66C120.977 6.23913 121.248 6.3541 121.462 6.58162C121.691 6.79374 121.807 7.06233 121.807 7.37698C121.807 7.69265 121.69 7.96198 121.459 8.17441C121.244 8.38676 120.974 8.49192 120.66 8.49192H116.121V21.4724C116.121 21.8044 115.995 22.0886 115.75 22.3155C115.52 22.5425 115.235 22.6561 114.903 22.6561ZM115.643 22.2058C115.859 22.0072 115.967 21.7627 115.967 21.4724V8.33959H120.66C120.938 8.33959 121.169 8.24791 121.353 8.06457C121.553 7.88121 121.653 7.65201 121.653 7.37698C121.653 7.10195 121.553 6.87275 121.353 6.6894C121.169 6.49076 120.938 6.39145 120.66 6.39145H109.148C108.87 6.39145 108.639 6.49076 108.455 6.6894C108.269 6.87275 108.177 7.10195 108.177 7.37698C108.177 7.65201 108.269 7.88121 108.455 8.06457C108.639 8.24791 108.87 8.33959 109.148 8.33959H113.863V21.4724C113.863 21.7627 113.963 22.0072 114.164 22.2058C114.364 22.4045 114.611 22.5038 114.903 22.5038C115.197 22.5038 115.443 22.4045 115.643 22.2058ZM148.758 22.6561C148.426 22.6561 148.141 22.5418 147.91 22.3136C147.679 22.0853 147.564 21.8016 147.564 21.4724V6.59773C147.564 6.26947 147.679 5.98647 147.908 5.75857C148.137 5.51519 148.423 5.39111 148.758 5.39111C149.092 5.39111 149.378 5.51449 149.607 5.75653C149.851 5.98316 149.976 6.26666 149.976 6.59773V12.1964C150.495 11.6733 151.05 11.2447 151.641 10.9116C152.347 10.5144 153.175 10.3188 154.121 10.3188C154.993 10.3188 155.756 10.5234 156.401 10.9388C157.057 11.3517 157.553 11.9161 157.889 12.6285C158.239 13.3382 158.413 14.1173 158.413 14.9633V21.4724C158.413 21.8044 158.288 22.0886 158.042 22.3156C157.812 22.5425 157.527 22.6561 157.196 22.6561C156.864 22.6561 156.577 22.5418 156.347 22.3135C156.117 22.0853 156.002 21.8016 156.002 21.4724V15.1924C156.002 14.2803 155.795 13.6245 155.405 13.1973C155.02 12.7732 154.432 12.5486 153.612 12.5486C152.871 12.5486 152.207 12.7394 151.617 13.1195C151.044 13.4982 150.497 14.0075 149.976 14.65V21.4724C149.976 21.8044 149.85 22.0885 149.605 22.3155C149.375 22.5425 149.089 22.6561 148.758 22.6561ZM149.498 22.2058C149.714 22.0072 149.822 21.7627 149.822 21.4724V14.5966C150.361 13.9243 150.931 13.3895 151.532 12.9922C152.149 12.595 152.842 12.3963 153.612 12.3963C155.308 12.3963 156.156 13.3284 156.156 15.1924V21.4724C156.156 21.7627 156.256 22.0072 156.456 22.2058C156.656 22.4045 156.903 22.5038 157.196 22.5038C157.488 22.5038 157.735 22.4045 157.935 22.2058C158.151 22.0072 158.259 21.7627 158.259 21.4724V14.9633C158.259 14.1382 158.09 13.3819 157.751 12.6942C157.427 12.0067 156.949 11.4643 156.317 11.067C155.701 10.6698 154.969 10.4711 154.121 10.4711C153.197 10.4711 152.395 10.6621 151.718 11.0441C151.098 11.3929 150.518 11.85 149.976 12.4155C149.924 12.4692 149.873 12.524 149.822 12.5797V6.59773C149.822 6.30741 149.714 6.06293 149.498 5.8643C149.297 5.65039 149.052 5.54343 148.758 5.54343C148.466 5.54343 148.219 5.65039 148.018 5.8643C147.818 6.06293 147.718 6.30741 147.718 6.59773V21.4724C147.718 21.7627 147.818 22.0072 148.018 22.2058C148.219 22.4045 148.466 22.5038 148.758 22.5038C149.052 22.5038 149.297 22.4045 149.498 22.2058Z" fill="#969FA4"/>
        </g>
        <defs>
            <clipPath id="clip0_2_728__nowintech">
                <rect width="159" height="27" fill="white"/>
            </clipPath>
        </defs>
    </symbol>
    <symbol id="optimer" width="" height="" viewBox="0 0 148 33" fill="none" xmlns="http://www.w3.org/2000/svg">
        <path d="M49.1941 26.3043C47.3079 26.3043 45.6553 25.8781 44.2361 25.0256C42.8349 24.1731 41.7302 22.9963 40.9218 21.4952C40.1314 19.9756 39.7362 18.2243 39.7362 16.2413C39.7362 14.2584 40.1314 12.5164 40.9218 11.0152C41.7302 9.49564 42.8349 8.30955 44.2361 7.45707C45.6553 6.60458 47.3079 6.17834 49.1941 6.17834C51.0623 6.17834 52.706 6.60458 54.1252 7.45707C55.5443 8.30955 56.6491 9.49564 57.4394 11.0152C58.2299 12.5164 58.6251 14.2584 58.6251 16.2413C58.6251 18.2243 58.2299 19.9756 57.4394 21.4952C56.6491 22.9963 55.5443 24.1731 54.1252 25.0256C52.706 25.8781 51.0623 26.3043 49.1941 26.3043ZM49.1941 23.1075C50.9904 23.1075 52.4186 22.4959 53.4784 21.2729C54.5563 20.0497 55.0952 18.3725 55.0952 16.2413C55.0952 14.1102 54.5563 12.4329 53.4784 11.2098C52.4186 9.98668 50.9904 9.37515 49.1941 9.37515C47.3978 9.37515 45.9606 9.98668 44.8828 11.2098C43.805 12.4329 43.2661 14.1102 43.2661 16.2413C43.2661 18.3725 43.805 20.0497 44.8828 21.2729C45.9606 22.4959 47.3978 23.1075 49.1941 23.1075Z" fill="#969FA4"/>
        <path d="M61.5895 32.0864V12.1828H64.6613L65.0385 14.1564C65.4697 13.5449 66.0355 13.0075 66.7362 12.5442C67.4547 12.0808 68.3798 11.8492 69.5115 11.8492C70.769 11.8492 71.8917 12.1642 72.8797 12.7943C73.8677 13.4244 74.6491 14.2862 75.224 15.3796C75.7989 16.473 76.0862 17.7146 76.0862 19.1046C76.0862 20.4944 75.7989 21.7361 75.224 22.8295C74.6491 23.9044 73.8677 24.7569 72.8797 25.387C71.8917 25.9985 70.769 26.3043 69.5115 26.3043C68.5055 26.3043 67.6254 26.1097 66.8708 25.7205C66.1164 25.3314 65.5056 24.7847 65.0385 24.0804V32.0864H61.5895ZM68.784 23.1909C69.8798 23.1909 70.787 22.811 71.5055 22.0512C72.2241 21.2913 72.5833 20.3092 72.5833 19.1046C72.5833 17.9 72.2241 16.9085 71.5055 16.1301C70.787 15.3518 69.8798 14.9626 68.784 14.9626C67.6702 14.9626 66.7541 15.3518 66.0355 16.1301C65.3349 16.89 64.9846 17.8722 64.9846 19.0767C64.9846 20.2813 65.3349 21.2729 66.0355 22.0512C66.7541 22.811 67.6702 23.1909 68.784 23.1909Z" fill="#969FA4"/>
        <path d="M84.596 25.9707C83.1949 25.9707 82.0721 25.6186 81.2278 24.9144C80.3835 24.2101 79.9614 22.9593 79.9614 21.1616V15.1572H77.671V12.1828H79.9614L80.3655 8.4856H83.4104V12.1828H87.0211V15.1572H83.4104V21.1894C83.4104 21.8566 83.5451 22.3199 83.8146 22.5794C84.102 22.8203 84.587 22.9407 85.2697 22.9407H86.9403V25.9707H84.596Z" fill="#969FA4"/>
        <path d="M91.8416 10.0423C91.213 10.0423 90.692 9.84768 90.2788 9.45856C89.8837 9.06935 89.686 8.57824 89.686 7.98522C89.686 7.39219 89.8837 6.91035 90.2788 6.5397C90.692 6.15053 91.213 5.95593 91.8416 5.95593C92.4704 5.95593 92.9823 6.15053 93.3778 6.5397C93.791 6.91035 93.9977 7.39219 93.9977 7.98522C93.9977 8.57824 93.791 9.06935 93.3778 9.45856C92.9823 9.84768 92.4704 10.0423 91.8416 10.0423ZM90.1171 25.9707V12.1828H93.5658V25.9707H90.1171Z" fill="#969FA4"/>
        <path d="M97.1662 25.9707V12.1828H100.211L100.508 14.0453C100.939 13.3781 101.505 12.8499 102.205 12.4607C102.923 12.053 103.75 11.8492 104.684 11.8492C106.75 11.8492 108.214 12.6739 109.076 14.3232C109.561 13.5634 110.208 12.9611 111.016 12.5163C111.842 12.0716 112.741 11.8492 113.711 11.8492C115.453 11.8492 116.792 12.3866 117.726 13.4615C118.66 14.5363 119.127 16.1116 119.127 18.1872V25.9707H115.677V18.5207C115.677 17.3347 115.453 16.4267 115.004 15.7965C114.573 15.1664 113.9 14.8514 112.984 14.8514C112.049 14.8514 111.295 15.2035 110.72 15.9077C110.163 16.6119 109.885 17.5942 109.885 18.8543V25.9707H106.435V18.5207C106.435 17.3347 106.211 16.4267 105.761 15.7965C105.313 15.1664 104.621 14.8514 103.687 14.8514C102.771 14.8514 102.025 15.2035 101.451 15.9077C100.894 16.6119 100.615 17.5942 100.615 18.8543V25.9707H97.1662Z" fill="#969FA4"/>
        <path d="M128.895 26.3043C127.548 26.3043 126.354 26.0078 125.311 25.4147C124.27 24.8218 123.452 23.9878 122.86 22.9129C122.267 21.838 121.971 20.5963 121.971 19.1879C121.971 17.761 122.257 16.4915 122.833 15.3796C123.425 14.2676 124.233 13.4059 125.257 12.7943C126.3 12.1642 127.521 11.8492 128.922 11.8492C130.233 11.8492 131.392 12.1457 132.399 12.7388C133.404 13.3317 134.186 14.1472 134.742 15.185C135.318 16.2042 135.604 17.344 135.604 18.6042C135.604 18.808 135.596 19.0211 135.578 19.2435C135.578 19.466 135.569 19.6976 135.551 19.9385H125.392C125.464 21.0134 125.823 21.8566 126.47 22.4681C127.135 23.0797 127.934 23.3855 128.868 23.3855C129.569 23.3855 130.152 23.228 130.62 22.9129C131.105 22.5794 131.464 22.1531 131.698 21.6342H135.2C134.949 22.5052 134.527 23.3021 133.934 24.0249C133.359 24.7291 132.641 25.285 131.779 25.6928C130.934 26.1005 129.973 26.3043 128.895 26.3043ZM128.922 14.7402C128.078 14.7402 127.332 14.9904 126.686 15.4908C126.039 15.9726 125.626 16.7139 125.446 17.7146H132.102C132.048 16.8065 131.725 16.0838 131.132 15.5463C130.539 15.0089 129.802 14.7402 128.922 14.7402Z" fill="#969FA4"/>
        <path d="M138.506 25.9707V12.1828H141.577L141.9 14.768C142.385 13.8785 143.042 13.1743 143.868 12.6553C144.712 12.1179 145.7 11.8492 146.832 11.8492V15.6019H145.862C145.107 15.6019 144.434 15.7224 143.841 15.9633C143.248 16.2042 142.781 16.6213 142.439 17.2142C142.116 17.8073 141.954 18.632 141.954 19.6883V25.9707H138.506Z" fill="#969FA4"/>
        <path d="M29.8987 8.33888L11.8205 27.2307C11.7042 27.3523 11.5008 27.2673 11.5029 27.0979L11.6198 17.8205C11.6206 17.7519 11.6584 17.6893 11.7182 17.6573L29.6796 8.04296C29.8657 7.94336 30.0452 8.18581 29.8987 8.33888Z" fill="#969FA4" fill-opacity="0.8"/>
        <path d="M30.7687 6.8269L30.5299 7.16953L10.0003 18.2756L2.50499 13.3C2.3301 13.1786 2.3777 12.9009 2.58993 12.8613L30.7687 6.8269Z" fill="#969FA4"/>
        <path fill-rule="evenodd" clip-rule="evenodd" d="M31.0767 6.62102C31.1603 6.74972 31.1576 6.91716 31.0699 7.04301L30.831 7.38564C30.7978 7.43331 30.754 7.47247 30.7032 7.49996L10.1736 18.6061C10.0544 18.6705 9.90985 18.664 9.79676 18.5889L2.30143 13.6134C2.29926 13.6119 2.29711 13.6105 2.29496 13.609C1.87546 13.3176 1.95432 12.6035 2.5165 12.4941L30.6914 6.46051C30.8402 6.42864 30.9931 6.49233 31.0767 6.62102ZM2.97119 13.1624L10.0188 17.8406L28.9503 7.59901L2.97119 13.1624Z" fill="#969FA4"/>
        <path fill-rule="evenodd" clip-rule="evenodd" d="M31.1174 6.94901C31.1773 6.77368 31.1016 6.58027 30.9392 6.49434C30.7769 6.4084 30.5769 6.45585 30.4691 6.60587L30.2802 6.86865L9.71873 18.2069C9.57743 18.2848 9.50213 18.4462 9.53228 18.6062L11.1229 27.0316C11.1539 27.1955 11.2881 27.3189 11.4522 27.3342C11.6162 27.3495 11.7705 27.2529 11.8305 27.0976L14.2719 20.7677L30.7925 7.7142C30.8488 7.66977 30.8911 7.60983 30.9145 7.54158L31.1174 6.94901Z" fill="url(#paint0_linear_2_746__optimer)"/>
        <path d="M30.7678 6.82629L24.5891 26.8507C24.5413 26.9991 24.3615 27.0651 24.2296 26.9827L16.1945 21.9468L14.4876 20.7826L30.2587 7.50412C30.455 7.33892 30.6153 7.13434 30.7296 6.90331L30.7678 6.82629Z" fill="#969FA4"/>
        <path fill-rule="evenodd" clip-rule="evenodd" d="M30.9067 6.47899C31.0853 6.55206 31.1787 6.75178 31.1212 6.93802L24.9425 26.9624L24.9411 26.9669C24.8181 27.3485 24.3693 27.5096 24.0361 27.3016L16.0004 22.2653C15.9963 22.2627 15.9923 22.2601 15.9884 22.2575L14.2816 21.0932C14.1849 21.0273 14.1246 20.9193 14.1188 20.8014C14.1129 20.6836 14.1621 20.5699 14.2517 20.4945L30.0229 7.21606C30.1798 7.08389 30.3081 6.92024 30.3996 6.73541L30.4377 6.6584C30.524 6.48398 30.7281 6.40591 30.9067 6.47899ZM29.938 8.26161L15.1039 20.7511L16.3955 21.6321L24.2864 26.5776L29.938 8.26161Z" fill="#969FA4"/>
        <defs>
            <linearGradient id="paint0_linear_2_746__optimer" x1="24.3569" y1="3.28244" x2="11.9016" y2="30.4229" gradientUnits="userSpaceOnUse">
                <stop offset="0.0001" stop-color="#ABB3B7"/>
                <stop offset="1" stop-color="#BBD3DF"/>
            </linearGradient>
        </defs>
    </symbol>
    <symbol id="pink.check" width="" height="" viewBox="0 0 19 13" fill="none" xmlns="http://www.w3.org/2000/svg">
        <path d="M18 1L6.66663 11L1 6.00004" stroke="#FFCCDD" stroke-width="1.6"/>
    </symbol>
    <symbol id="slaq.aj" width="" height="" viewBox="0 0 11 20" fill="none" xmlns="http://www.w3.org/2000/svg">
        <path d="M1.34314 1.1001L9.68628 9.86039L1.34314 18.6207" stroke="#006B99" stroke-width="1.6"/>
    </symbol>
    <symbol id="slaq.nerqev" width="" height="" viewBox="0 0 18 10" fill="none" xmlns="http://www.w3.org/2000/svg">
        <path d="M1.71429 1.66663L9.00001 8.74996L16.2857 1.66663" stroke="#CECAC4" stroke-width="2.5" stroke-linecap="round" stroke-linejoin="round"/>
    </symbol>
    <symbol id="tw" width="" height="" viewBox="0 0 22 22" fill="none" xmlns="http://www.w3.org/2000/svg">
        <path d="M21.7231 2.91331C20.9233 3.34219 20.0751 3.62361 19.2063 3.74804C20.1213 3.08537 20.806 2.04254 21.1329 0.813959C20.2728 1.43199 19.3317 1.86719 18.3504 2.1007C17.9403 1.5713 17.4449 1.14948 16.8946 0.861369C16.3444 0.57325 15.7512 0.424995 15.1517 0.425784C12.7317 0.425784 10.7695 2.80049 10.7695 5.73056C10.7695 6.14593 10.8084 6.55125 10.8833 6.93978C7.24112 6.7185 4.01224 4.60639 1.85081 1.39655C1.46109 2.20616 1.25631 3.12669 1.25747 4.06368C1.2569 4.9371 1.43455 5.79717 1.77465 6.5674C2.11475 7.33775 2.60677 7.99433 3.20698 8.47902C2.51119 8.45228 1.83075 8.22475 1.22224 7.81555C1.22169 7.83767 1.22169 7.85944 1.22169 7.88236C1.22169 10.4517 2.73208 12.5958 4.73649 13.0837C4.09109 13.2952 3.41438 13.3262 2.7576 13.1744C3.31516 15.2814 4.93346 16.8157 6.85105 16.8587C5.29876 18.3333 3.38187 19.1332 1.40865 19.1296C1.05497 19.1296 0.706294 19.1048 0.363159 19.0554C2.36685 20.6138 4.69886 21.4411 7.08047 21.4382C15.1409 21.4382 19.5487 13.3553 19.5487 6.34607C19.5487 6.11646 19.5442 5.88702 19.5359 5.65905C20.3942 4.90887 21.135 3.97901 21.7231 2.91331Z" fill="black"/>
    </symbol>
</svg>